<?xml version="1.0" encoding="UTF-8" standalone="no"?>
<!-- Created with Inkscape (http://www.inkscape.org/) -->

<svg
   version="1.1"
   id="svg22781"
   width="4724"
   height="4134"
   viewBox="0 0 4724 4134"
   sodipodi:docname="logo taxidermie.svg"
   inkscape:version="1.2.2 (732a01da63, 2022-12-09)"
   inkscape:export-filename="logo taxidermie.png"
   inkscape:export-xdpi="96.120003"
   inkscape:export-ydpi="96.120003"
   xmlns:inkscape="http://www.inkscape.org/namespaces/inkscape"
   xmlns:sodipodi="http://sodipodi.sourceforge.net/DTD/sodipodi-0.dtd"
   xmlns:xlink="http://www.w3.org/1999/xlink"
   xmlns="http://www.w3.org/2000/svg"
   xmlns:svg="http://www.w3.org/2000/svg">
  <defs
     id="defs22785">
    <linearGradient
       inkscape:collect="always"
       id="linearGradient28609">
      <stop
         style="stop-color:#ecca5e;stop-opacity:1"
         offset="0"
         id="stop28605" />
      <stop
         style="stop-color:#7f6534;stop-opacity:1"
         offset="1"
         id="stop28607" />
    </linearGradient>
    <linearGradient
       inkscape:collect="always"
       xlink:href="#linearGradient7600"
       id="linearGradient7602"
       x1="-1640.8102"
       y1="3197.9863"
       x2="-1653.5503"
       y2="2445.6902"
       gradientUnits="userSpaceOnUse"
       gradientTransform="matrix(0.9062059,0,0,0.9062059,430.35224,89.400799)" />
    <linearGradient
       inkscape:collect="always"
       id="linearGradient7600">
      <stop
         style="stop-color:#6f572e;stop-opacity:1"
         offset="0.1570248"
         id="stop7596" />
      <stop
         style="stop-color:#f3cf61;stop-opacity:1"
         offset="1"
         id="stop7598" />
    </linearGradient>
    <linearGradient
       inkscape:collect="always"
       xlink:href="#linearGradient28609"
       id="linearGradient28611"
       x1="-3400.0012"
       y1="1141.2153"
       x2="-3254.8428"
       y2="2746.8328"
       gradientUnits="userSpaceOnUse"
       gradientTransform="matrix(0.9062059,0,0,0.9062059,430.35224,89.400799)" />
    <rect
       x="-4761.2617"
       y="-148.17204"
       width="3348.6882"
       height="760.61652"
       id="rect32409-6" />
    <rect
       x="-4761.2617"
       y="-148.17204"
       width="3348.6882"
       height="760.61652"
       id="rect32409-4" />
    <rect
       x="-4761.2617"
       y="-148.17204"
       width="3348.6882"
       height="760.61652"
       id="rect32409-6-0" />
    <rect
       x="-4761.2617"
       y="-148.17204"
       width="3348.6882"
       height="760.61652"
       id="rect32409-6-4" />
    <rect
       x="-4761.2617"
       y="-148.17204"
       width="3348.6882"
       height="760.61652"
       id="rect32409-8" />
  </defs>
  <sodipodi:namedview
     id="namedview22783"
     pagecolor="#ffffff"
     bordercolor="#000000"
     borderopacity="0.25"
     inkscape:showpageshadow="2"
     inkscape:pageopacity="0.0"
     inkscape:pagecheckerboard="0"
     inkscape:deskcolor="#d1d1d1"
     showgrid="false"
     inkscape:zoom="0.14316603"
     inkscape:cx="2060.5446"
     inkscape:cy="2032.6051"
     inkscape:window-width="1920"
     inkscape:window-height="1017"
     inkscape:window-x="-8"
     inkscape:window-y="-8"
     inkscape:window-maximized="1"
     inkscape:current-layer="g22787" />
  <g
     inkscape:groupmode="layer"
     inkscape:label="Image"
     id="g22787">
    <rect
       style="fill:#000000;fill-opacity:1;stroke-width:0.389953;-inkscape-stroke:none;stop-color:#000000"
       id="rect35331"
       width="4724.0005"
       height="4134"
       x="-0.00020599365"
       y="6.9968523e-06" />
    <g
       id="g45208"
       transform="matrix(1.103502,0,0,1.103502,-474.89441,-98.653961)">
      <path
         style="mix-blend-mode:normal;fill:url(#linearGradient7602);fill-opacity:1;stroke-width:1.22603;-inkscape-stroke:none;stop-color:#000000"
         d="m 2752.7132,2139.3169 c -2.3365,-6.1453 -1.9896,-9.3764 1.5942,-14.846 5.1285,-7.8272 3.7266,-15.1042 -2.91,-15.1042 -6.8611,0 -5.2771,-12.7834 2.7688,-22.3455 3.9302,-4.6708 7.1459,-11.3327 7.1459,-14.8044 0,-3.4717 3.146,-12.2897 6.9912,-19.5959 9.8864,-18.7847 18.7339,-38.8433 18.7339,-42.4728 0,-5.709 -135.4597,-25.7662 -141.4358,-20.9421 -1.6011,1.2924 -12.8796,3.1321 -25.0633,4.0881 -12.1839,0.9562 -31.9076,2.5277 -43.8305,3.4922 -24.4626,1.9791 -52.9041,-2.4949 -64.0146,-10.0692 -6.6026,-4.5012 -21.4931,-9.793 -35.7872,-12.7183 -5.2039,-1.065 -5.155,-1.1998 0.5459,-1.5015 17.0727,-0.9039 8.5156,-14.6234 -9.1209,-14.6234 -13.6905,0 -22.9495,-6.9173 -15.5373,-11.6076 2.2571,-1.428 10.7679,-2.6163 18.9132,-2.6403 26.4324,-0.078 132.7617,-44.1666 160.7289,-66.6446 6.2583,-5.0302 14.7687,-11.5362 18.9119,-14.4583 l 7.5332,-5.3124 -9.5244,-8.1485 c -6.5344,-5.5906 -12.7502,-8.1849 -19.8001,-8.2645 -6.5338,-0.073 -12.1599,-2.1981 -15.4495,-5.8329 -2.8453,-3.1443 -6.8169,-5.7169 -8.8254,-5.7169 -2.0085,0 -4.4307,-2.4535 -5.3825,-5.4526 -2.5112,-7.9121 -10.0097,-9.7238 -19.9631,-4.8232 -26.6236,13.1081 -166.3343,60.8294 -169.3264,57.8373 -0.917,-0.9169 5.264,-8.4978 13.7355,-16.8461 8.4712,-8.3483 16.9264,-18.5514 18.7892,-22.6733 1.8628,-4.122 6.793,-9.8686 10.9559,-12.7705 4.1627,-2.9016 13.7238,-10.4208 21.2468,-16.7091 46.3261,-38.723 57.3147,-46.5857 83.0323,-59.4109 13.3627,-6.6642 30.0841,-15.5658 37.1584,-19.7818 18.2664,-10.8856 104.0591,-39.7603 162.9263,-54.835 77.6126,-19.875 110.4846,-24.9955 164.06,-25.5551 47.1049,-0.4921 59.2192,1.6599 62.8678,11.1679 2.4651,6.424 -9.5096,18.0909 -21.9941,21.4286 -15.4698,4.1357 -19.1409,7.3406 -19.1409,16.7096 0,9.3655 16.7465,26.58 32.0649,32.9615 16.1478,6.7271 28.1727,5.4022 51.4951,-5.6736 11.892,-5.6475 34.1554,-12.8148 50.496,-16.2562 26.1256,-5.5021 31.0869,-5.7709 46.7591,-2.5339 34.6213,7.1509 48.9544,19.2791 59.2121,50.1039 4.1619,12.5065 9.1648,21.1471 15.3637,26.5351 10.6948,9.2959 57.7565,40.1642 119.0537,78.0882 22.2357,13.7572 37.1586,25.9749 37.1586,30.4223 0,2.095 -1.2762,3.8091 -2.8358,3.8091 -3.008,0 -105.859,-48.1657 -137.2237,-64.2625 -23.6374,-12.1312 -51.9017,-18.4688 -58.3821,-13.0906 -7.3921,6.1348 -5.1986,11.0176 7.6464,17.0229 42.8343,20.0263 40.7732,44.2035 -8.3161,97.5457 -12.3261,13.3941 -26.913,29.5773 -32.4154,35.9627 -5.5023,6.3856 -24.1532,22.327 -41.4461,35.4254 -17.293,13.0985 -35.7585,27.5442 -41.0343,32.1015 -12.9473,11.1844 -53.9463,37.4552 -75.187,48.1775 -57.8706,29.2129 -118.4769,48.813 -176.1954,56.9811 -10.5291,1.4902 -22.6578,3.5213 -26.9522,4.5137 -6.6546,1.5377 -8.2497,0.6437 -10.7948,-6.0506 z"
         id="path7594"
         inkscape:highlight-color="#979391" />
      <path
         style="fill:url(#linearGradient28611);fill-opacity:1;stroke-width:2.44389;-inkscape-stroke:none;stop-color:#000000"
         d="m 1701.6173,1968.8839 c -47.7413,-23.1446 -110.7336,-100.8461 -164.6442,-203.0892 -29.795,-56.5063 -29.0187,-64.8297 14.1019,-151.2426 35.5624,-71.2647 36.6954,-74.6121 55.6917,-164.575 14.0539,-66.555 18.2412,-143.1387 8.18,-149.5953 -3.0755,-1.9735 -5.5923,-8.6064 -5.5923,-14.7392 0,-6.1334 -3.9154,-21.3123 -8.7009,-33.7307 -8.3059,-21.5527 -10.1019,-22.7502 -39.5093,-26.3386 -58.4185,-7.129 -102.9938,-40.2166 -125.5598,-93.2014 -12.0243,-28.2332 -20.7653,-93.2345 -14.7329,-109.5572 4.7089,-12.741 117.1452,34.9573 148.3531,62.9357 18.6597,16.7284 25.6551,20.0792 30.7539,14.7301 5.0827,-5.3319 4.0333,-8.4267 -4.5652,-13.4586 -22.6947,-13.2819 -217.32,-211.25456 -238.1484,-242.24331 -29.8522,-44.41633 -37.715,-53.07773 -67.3691,-74.20699 -53.5746,-38.17323 -77.5288,-87.90064 -77.5288,-160.94282 0,-49.14545 8.8555,-63.33605 13.7344,-22.00875 6.2901,53.28047 28.9408,110.13839 39.507,99.16842 1.4547,-1.51101 -0.126,-18.21193 -3.5169,-37.11303 -5.6043,-31.25005 -4.0179,-150.22821 2.5093,-188.21678 11.063,-64.38728 16.4475,-85.91227 31.8931,-127.49707 9.6955,-26.10366 18.5905,-46.4625 19.7664,-45.24146 1.1759,1.2211 -2.8322,37.32106 -8.907,80.22212 -12.8425,90.69499 -20.5936,207.97784 -13.2816,200.96552 2.7314,-2.61942 10.6411,-20.90718 17.5782,-40.63993 6.9365,-19.73292 11.1908,-28.04021 9.4538,-18.4609 -1.737,9.5794 -4.5136,47.46165 -6.1704,84.18261 -2.6725,59.22612 -1.63,70.57162 9.2368,100.47058 15.1456,41.67512 28.2469,43.17498 34.8273,3.98634 14.9401,-88.97253 29.5304,-133.55284 54.4945,-166.50422 13.6148,-17.97159 14.3356,-11.96235 2.6519,22.12901 -13.9995,40.85166 -18.9053,96.85212 -9.2156,105.20186 6.6221,5.70639 13.9302,0.2192 40.7675,-30.61673 17.9848,-20.66315 32.7829,-35.48023 32.8849,-32.92674 0.4178,10.45521 -20.0584,44.27233 -51.3293,84.76645 -32.9981,42.73092 -33.1585,43.12461 -29.586,72.57132 4.6928,38.68116 12.286,63.76653 30.0503,99.27599 l 14.5222,29.02819 3.1637,-34.83415 c 1.7399,-19.1587 9.5048,-49.94633 17.2559,-68.41722 l 14.0923,-33.58299 -0.3894,69.52888 c -0.4465,79.7745 2.8059,87.86609 30.5301,75.94305 31.6178,-13.59794 33.3812,-18.28785 33.4212,-88.88043 0.058,-56.37634 1.5721,-67.18684 11.7278,-82.31666 11.0293,-16.4318 11.4953,-16.59586 8.2361,-2.90285 -6.3005,26.46984 -10.4248,108.30007 -6.5421,129.79091 3.3738,18.66985 5.7658,21.15714 20.3447,21.15714 9.0867,0 16.5214,2.76019 16.5214,6.13337 0,3.37299 -12.5809,18.65752 -27.9584,33.96517 -15.377,15.30773 -27.9578,32.392 -27.9578,37.96473 0,25.9289 50.2952,71.47237 97.2894,88.09767 13.3051,4.7072 40.8249,22.8041 61.1558,40.2155 50.2683,43.051 65.6802,43.2166 109.4156,1.1755 22.3095,-21.4458 40.9664,-33.5112 62.9329,-40.7009 33.8511,-11.0792 77.8483,-46.79792 91.5638,-74.33614 4.5102,-9.05528 8.1999,-17.75527 8.1999,-19.33393 0,-1.5782 -12.5813,-15.72778 -27.9583,-31.44379 -15.3769,-15.71582 -27.9584,-31.36238 -27.9584,-34.77001 0,-3.40771 6.92,-7.0224 15.3776,-8.03286 13.1505,-1.57109 16.1057,-5.44347 20.4127,-26.74605 3.1488,-15.57659 2.8156,-43.85309 -0.8908,-75.47389 -3.2593,-27.81094 -4.9293,-51.61953 -3.7116,-52.90792 1.2189,-1.28858 6.0228,7.11828 10.6761,18.68208 5.7886,14.3847 8.4611,40.91273 8.4611,83.99848 v 62.97375 l 19.7607,9.78403 c 39.2453,19.43124 41.569,15.54816 42.2057,-70.51945 l 0.458,-61.93622 13.9652,31.79063 c 10.5913,24.10918 13.5203,39.19151 12.1233,62.4194 -1.0133,16.84546 0,30.62483 2.2814,30.62024 7.4295,0 29.6713,-42.87672 39.4338,-75.99216 5.2601,-17.84279 9.5631,-44.40824 9.5631,-59.03427 0,-23.21197 -3.2564,-30.52831 -25.6151,-57.54682 -29.7337,-35.9305 -54.5272,-77.41242 -51.6418,-86.40114 1.1032,-3.43551 12.0598,8.94078 24.3482,27.50314 17.1064,25.84084 25.5961,33.74975 36.2276,33.74975 12.6352,0 14.0407,-2.52912 15.6099,-28.08626 1.05,-17.09651 -2.7795,-42.56038 -9.7853,-65.07688 -13.601,-43.70998 -13.909,-46.7598 -3.8495,-38.09147 14.7329,12.69506 37.7631,76.52573 48.6499,134.83817 12.5591,67.26438 14.4609,72.06393 24.9722,63.00676 23.2615,-20.04432 34.1872,-108.05928 23.7607,-191.41267 l -3.9944,-31.9313 8.2859,22.94294 c 8.6786,24.03066 17.9446,33.74894 26.7755,28.0824 10.7683,-6.91006 -3.2392,-119.22507 -32.4301,-260.03052 l -3.6109,-17.41719 9.3428,16.92924 c 43.4263,78.69032 67.522,253.12468 50.9931,369.14963 l -4.5491,31.9313 14.0304,-17.11612 c 7.7162,-9.41407 15.5412,-27.70174 17.3893,-40.63983 11.5887,-81.1506 25.2069,-100.51672 25.2069,-35.84613 0,74.68074 -25.6832,129.08626 -78.5279,166.34636 -22.3466,15.75585 -42.978,37.25991 -60.1595,62.70309 -28.0608,41.55442 -33.3691,47.22456 -163.9847,175.15733 -47.2713,46.3005 -86.7611,87.4486 -87.7556,91.4399 -3.1716,12.7297 8.0283,7.8474 28.9145,-12.6051 13.2965,-13.02 40.624,-28.0193 79.3311,-43.5428 32.476,-13.0241 61.1585,-23.6806 63.7388,-23.6806 8.0569,0 10.5817,36.3337 4.8331,69.5515 -13.8895,80.2563 -62.1718,128.227 -138.5081,137.6138 -24.0808,2.9614 -29.9639,6.1305 -36.7778,19.8112 -4.461,8.9574 -8.1113,21.7706 -8.1113,28.4743 0,6.7033 -4.0809,20.3825 -9.0692,30.3978 -20.2935,40.7458 9.8071,192.5567 59.2133,298.6387 39.8544,85.5732 45.1152,112.481 28.5732,146.1473 -33.9141,69.0217 -108.2169,169.2895 -147.3202,198.8011 -49.6037,37.4363 -79.4462,42.3918 -124.3089,20.6428 z"
         id="path1723" />
      <path
         style="fill:#ffffff;fill-opacity:1;stroke-width:2.45564;-inkscape-stroke:none;stop-color:#000000"
         d="m 4193.1193,3598.1918 c -220.6263,-6.38 -443.3238,-102.5405 -572.5151,-286.2147 -68.633,-87.9448 -107.1799,-194.6655 -134.5304,-301.8442 -268.3234,197.7438 -634.7449,223.2957 -945.6901,123.0008 -285.9333,-94.1373 -526.1787,-331.2798 -598.3681,-626.6602 -38.6803,-134.979 -31.4246,-278.6324 -15.9627,-416.121 50.4761,-278.7977 240.7495,-528.6707 501.5435,-642.3164 156.8978,-79.3338 334.4679,-103.6295 508.7417,-99.5792 202.0445,2.8725 404.5893,59.7424 575.0708,169.4266 21.4167,118.6063 32.2655,238.9708 52.472,357.8165 -48.2496,-22.6078 -30.4187,-53.8403 -66.8631,-119.1262 -83.9185,-199.9052 -296.2113,-313.9743 -505.5926,-330.4081 -169.4265,-13.7506 -345.4464,9.4432 -493.6507,98.1269 -238.0654,138.6461 -390.0404,406.4751 -394.9015,681.4303 -18.4283,252.3647 16.419,479.5377 205.3357,653.8702 153.9456,155.8214 425.7759,270.1741 642.9999,253.3103 189.5605,-7.5306 373.4409,-88.3284 514.8275,-214.045 -2.8609,-163.3785 5.3239,-329.175 -4.3491,-491.0623 -17.4916,-72.8417 -99.6894,-80.4117 -161.6783,-74.0909 3.0473,-12.4844 6.266,-18.745 20.4428,-24.9221 13.6636,-5.9535 12.0986,-4.2446 126.8283,-2.9374 l 347.9469,2.0967 c -0.5819,53.8075 -95.4463,5.581 -126.8753,47.9471 -67.6679,64.0111 -24.7451,168.1008 -35.4421,250.5147 5.3273,189.246 -17.7343,387.329 67.7215,563.4666 87.4453,225.0944 329.6492,351.3312 562.5361,357.865 108.2231,6.217 218.4686,2.5336 324.9812,-19.081 3.4565,58.117 -71.2642,61.9758 -141.5013,74.4239 -86.9726,14.3842 -165.9494,13.4818 -253.5275,15.1131 z M 624.49191,3542.6992 c -78.52326,6.4578 -97.7362,-46.9693 -28.73325,-78.5493 241.4342,-99.302 494.80444,-167.6648 751.50644,-208.7091 76.7735,-9.7964 71.6204,45.0434 -4.5536,54.1376 -249.7388,46.0194 -503.21358,90.3086 -739.20754,187.1833 18.46423,26.1515 271.48822,-16.3388 152.34978,0.5171 658.72486,-77.7629 1312.07366,-206.8957 1975.05336,-245.3434 238.133,-9.2879 475.3075,-34.1149 692.191,65.1989 54.4548,26.2693 97.5064,94.7894 51.1066,148.7014 -47.7702,53.6226 -132.5455,89.5949 -208.5459,59.5849 51.9088,-6.6661 82.0858,8.5234 172.0141,-46.109 67.2107,-46.0814 36.8908,-128.1996 -26.5905,-148.322 -206.6489,-92.6642 -435.2513,-67.6316 -657.8168,-60.9607 -669.7842,47.1294 -1329.4736,177.596 -1994.71077,261.8787 -46.89283,2.8737 -73.29322,4.2552 -134.06292,10.7916 z M 1719.493,3106.5888 h -332.4516 c 4.9526,-57.7935 97.9868,-33.3887 140.2262,-48.8652 78.0033,-27.5443 107.3822,-125.4989 92.9116,-208.387 -4.12,-185.3731 12.732,-372.2164 -5.8471,-556.5757 C 1566.6685,1962.7217 1440.7638,1646.6104 1276.977,1357.5817 1180.9657,1197.936 1060.3764,1050.7726 912.6574,937.1001 833.83821,879.11236 739.6003,838.52452 640.71683,836.60083 c 2.46885,-51.92642 194.53471,-18.21427 143.07926,-24.1082 172.40579,17.8463 338.55201,87.94714 461.89861,211.52127 160.7822,137.8345 264.2485,329.605 348.9731,520.7333 57.0877,134.9485 107.8407,272.4962 155.1847,411.1038 24.8264,-46.227 35.9907,-65.742 66.4736,-138.6777 102.621,-276.2896 215.7532,-555.3826 417.8676,-775.1155 129.5409,-149.31538 329.8736,-238.42589 527.6595,-231.21973 -13.2802,46.08214 -45.7152,21.48301 -112.663,44.69399 -192.5574,74.98153 -325.8046,248.27944 -437.9712,414.57074 -183.6005,297.864 -306.4794,632.9777 -373.6487,975.9246 -23.5514,165.2944 -7.0909,334.4855 -14.0866,501.3923 3.5813,96.8139 -26.4299,215.5789 62.8962,283.4338 45.4227,40.698 106.3487,49.3025 165.5653,48.5812 -0.2932,36.1922 -147.2738,27.1541 -147.2738,27.1541 z"
         id="path45173"
         sodipodi:nodetypes="cccccccccccccccccccsccccccccccccccccccccccccccccccccccccccccccccccc" />
      <rect
         style="font-size:192px;line-height:3.5;font-family:'Bohemia LT Std';-inkscape-font-specification:'Bohemia LT Std';white-space:pre;shape-inside:url(#rect32409);fill:#000000;fill-opacity:1;stroke-width:0.385806;-inkscape-stroke:none;stop-color:#000000"
         id="rect36007"
         width="2551.5735"
         height="622.33191"
         x="710.37756"
         y="2237.2612" />
      <path
         id="path45072"
         style="font-style:normal;font-variant:normal;font-weight:normal;font-stretch:normal;font-size:192px;line-height:3.5;font-family:'Bohemia LT Std';-inkscape-font-specification:'Bohemia LT Std, Normal';font-variant-ligatures:no-common-ligatures;font-variant-caps:normal;font-variant-numeric:normal;font-variant-east-asian:normal;white-space:pre;shape-inside:url(#rect32409);display:inline;fill:#f3cf61;fill-opacity:1;stroke-width:0.690786;-inkscape-stroke:none;stop-color:#000000"
         d="m 3239.2937,2269.612 c -1.2179,2.9949 -2.81,5.8821 -5.0244,8.2586 -1.9281,1.0829 -4.2385,0.5002 -6.2621,0.035 -8.713,-2.4575 -17.2704,-5.563 -26.2058,-7.1609 -16.1657,-3.0792 -33.1287,-2.5968 -48.9017,2.2574 -11.1913,3.5092 -21.7396,9.6585 -29.5045,18.543 -7.2122,8.2326 -11.6613,18.85 -12.3624,29.7804 -0.4767,6.8285 0.545,13.7499 3.0007,20.141 4.3287,11.428 12.5637,21.1283 22.4995,28.1224 6.3134,4.5499 13.4047,7.8734 20.6172,10.7254 13.6641,5.7593 27.3445,11.4799 40.9908,17.2808 4.3536,1.9406 8.6259,4.1171 12.5384,6.8542 0.4667,0.3381 1.1559,0.8308 1.6943,1.2556 4.4474,3.3955 8.1425,7.8957 10.086,13.1816 1.9444,5.2021 2.4151,10.8933 1.7802,16.3889 -1.0464,8.3902 -5.2996,16.3361 -11.7428,21.8194 -6.4413,5.5672 -14.7563,8.518 -23.0991,9.6786 -1.5167,0.2091 -2.9434,0.3589 -4.5057,0.4595 -8.7436,0.6092 -17.6282,-0.4184 -25.9163,-3.3116 -0.4316,-0.1614 -1.1689,-0.4148 -1.7107,-0.6307 -9.6811,-3.6804 -18.2998,-10.1961 -24.2774,-18.6754 -3.1708,-4.3691 -5.4107,-9.3089 -7.5747,-14.228 -3.3792,-7.8074 -5.9114,-15.9884 -7.3779,-24.3727 -0.2876,-0.3053 -1.0416,-0.045 -1.5099,-0.1316 -4.1577,0 -8.3154,0 -12.473,0 0,25.6693 0,51.3386 0,77.0079 4.4832,0 8.9665,0 13.4498,0 1.2489,-3.4776 2.8696,-6.8956 5.3985,-9.6362 1.4887,-0.9358 3.3572,-0.5926 5.015,-0.4677 2.0316,0.2748 4.0139,0.8346 5.9753,1.4202 0.5142,0.1694 1.3146,0.4162 1.9388,0.6207 6.8205,2.3426 13.7379,4.4774 20.8511,5.7329 12.7555,2.3181 25.8519,2.5934 38.7261,1.1687 12.9231,-1.5208 25.7501,-5.2213 36.9289,-11.999 7.5628,-4.5844 14.2959,-10.627 19.302,-17.9442 4.9354,-7.1121 8.2258,-15.352 9.5169,-23.9135 1.6214,-10.0732 0.877,-20.7062 -3.2675,-30.111 -3.9466,-9.1323 -10.8828,-16.6749 -18.7786,-22.5865 -7.0586,-5.2993 -14.9475,-9.3765 -23.0506,-12.8218 -10.8714,-4.5781 -21.7821,-9.0703 -32.7219,-13.4842 -5.4168,-2.2025 -10.8738,-4.3074 -16.2983,-6.4892 -5.5133,-2.4162 -10.8275,-5.5726 -14.901,-10.0706 -0.2134,-0.2302 -0.6547,-0.734 -0.94,-1.0786 -3.1799,-3.7467 -5.1632,-8.4146 -5.9371,-13.2497 -0.6381,-4.1342 -0.7846,-8.4193 0.1585,-12.5193 1.4287,-6.0754 5.2788,-11.4917 10.4148,-15.0074 0.8383,-0.5918 1.8965,-1.2684 2.8716,-1.81 7.4371,-4.1366 16.1311,-5.5035 24.5563,-5.166 1.0041,0.055 2.2621,0.1021 3.3632,0.1983 9.2729,0.7595 18.5735,3.7017 25.936,9.5238 1.6833,1.3007 3.2649,2.7313 4.7475,4.2564 0.3636,0.3711 0.9228,0.9742 1.3492,1.4458 3.2979,3.6733 6.0358,7.814 8.4237,12.1252 0.1776,0.3232 0.513,0.9504 0.7511,1.3898 3.0861,5.8126 5.6733,11.9527 7.704,18.1555 1.5744,4.6956 2.6818,9.5268 3.7035,14.3674 4.5219,0 9.0438,0 13.5658,0 0,-25.4731 0,-50.9463 0,-76.4195 -4.3487,0 -8.6972,0 -13.0458,0 -0.1552,0.3637 -0.3104,0.7273 -0.4655,1.091 z m -497.336,-1.0786 c -15.8517,0.2349 -31.6631,1.4911 -47.4799,2.4791 -7.6062,0.4848 -15.1585,0.9007 -22.7821,1.1574 -1.7748,0.048 -3.7326,0.092 -5.5777,0.1175 -7.3442,0.078 -14.689,0.027 -22.0334,0.04 0,4.2273 0,8.4547 0,12.6821 8.0595,1.1434 16.1044,2.1499 24.1308,3.3725 2.7824,0.5467 5.7395,1.5089 7.5911,3.7828 1.7455,2.3774 1.6325,5.4876 1.5745,8.2952 -0.045,3.3303 0.031,6.6613 0,9.9925 -0.01,47.7814 0.024,95.5633 -0.028,143.3444 -0.071,3.0426 -1.5049,6.2889 -4.3573,7.6642 -4.3855,2.1861 -9.3958,2.1386 -14.143,2.823 -4.921,0.6051 -9.847,1.1709 -14.7699,1.7604 0,4.2497 0,8.4993 0,12.7489 12.548,0 25.1566,-0.092 37.6651,0.2934 14.8624,0.4507 29.6803,1.8119 44.5464,2.6321 9.7735,0.5212 19.5688,0.731 29.3538,0.4756 18.01,-0.5226 36.1194,-2.9411 53.1813,-8.9161 14.4458,-5.1064 28.1126,-13.0146 38.7306,-24.1705 11.8554,-12.2726 19.5092,-28.2137 22.9923,-44.8331 2.8971,-13.5825 3.5492,-27.6098 2.3046,-41.4294 -1.5274,-15.8995 -6.4255,-31.6061 -15.1336,-45.0616 -5.3254,-8.2653 -12.0194,-15.629 -19.691,-21.7751 -9.6197,-7.7676 -20.678,-13.6379 -32.2911,-17.8189 -18.2045,-6.5739 -37.6131,-9.2307 -56.8998,-9.6175 -2.2949,-0.047 -4.5902,-0.055 -6.8855,-0.04 z m -1605.9713,1.3545 c -25.8535,58.6755 -51.6992,117.3561 -77.5758,176.0213 -3.0042,5.6816 -6.9035,11.1252 -12.3602,14.6776 -3.2047,1.9165 -6.9361,2.4794 -10.4629,3.4799 -3.0042,0.7369 -6.0424,1.3202 -9.0688,1.9556 0,4.2566 0,8.5133 0,12.77 26.7321,0 53.4643,0 80.1964,0 0,-4.3499 0,-8.6996 0,-13.0493 -5.2932,-0.6206 -10.591,-1.204 -15.8724,-1.9202 -1.7205,-0.2442 -3.621,-0.5224 -5.4053,-0.8117 -2.9417,-0.4286 -5.9132,-1.1074 -8.4997,-2.6307 -1.3019,-0.8348 -2.7669,-2.0013 -2.8563,-3.6743 0.081,-2.0873 1.3637,-3.849 2.0727,-5.7547 6.5077,-14.6399 13.0155,-29.2798 19.5232,-43.9197 25.2326,0 50.465,0 75.6975,0 6.9652,16.1847 13.9865,32.3462 20.897,48.5534 0.6027,1.7094 0.7007,4.0034 -0.8414,5.255 -2.6039,1.9827 -6.0065,2.1016 -9.1085,2.6348 -5.0188,0.8882 -10.0678,1.5996 -15.1036,2.3857 0,4.3105 0,8.6211 0,12.9317 33.1525,0 66.3051,0 99.4577,0 0,-4.2848 0,-8.5696 0,-12.8543 -5.6531,-1.0549 -11.3516,-1.8962 -16.9268,-3.352 -5.6211,-1.7826 -10.1339,-5.9567 -13.5625,-10.6302 -5.496,-7.4335 -8.6081,-16.2232 -12.5252,-24.5121 -0.6721,-1.5001 -1.429,-3.1709 -2.1337,-4.7366 -23.1288,-51.2981 -46.257,-102.5964 -69.3862,-153.8944 -5.2275,0 -10.4551,0 -15.6826,0 -0.1575,0.3584 -0.3151,0.7167 -0.4726,1.0752 z m 929.4643,-1.0682 c -21.1274,0.1253 -42.3109,5.6202 -60.5218,16.4119 -10.5637,6.2854 -20.0892,14.3565 -27.8157,23.9308 -8.0417,9.9043 -14.1588,21.3599 -17.8919,33.5608 -5.3627,17.3488 -6.2025,35.9574 -3.2244,53.8284 3.1125,18.2451 11.1318,35.7182 23.4172,49.6104 13.9295,15.9433 32.9735,27.0551 53.3486,32.5079 19.4479,5.2112 40.1865,5.6285 59.7945,1.0092 11.2529,-2.4826 22.1804,-6.552 33.7133,-7.6653 3.88,-0.4145 7.9391,-0.3548 11.6732,0.6772 5.4028,1.3344 10.6224,4.3575 13.6483,9.1405 0.5127,1.3091 2.121,1.8046 3.3908,1.3673 1.978,-0.5012 4.0015,-0.84 5.9959,-1.2925 1.1183,-0.2362 2.2367,-0.4719 3.3552,-0.7073 -0.6184,-3.1824 -1.2421,-6.5098 -1.7059,-9.6288 -0.5224,-3.5113 -0.9693,-7.1473 -1.3105,-10.6091 -0.412,-4.2675 -0.7177,-8.4552 -0.9434,-12.7503 -0.2032,-4.0606 -0.3878,-8.197 -0.4518,-12.2858 -0.066,-6.1637 -0.6261,-12.311 -0.6506,-18.4764 -0.071,-2.7739 0.045,-5.5585 0.5369,-8.2928 0.1288,-1.6186 0.114,-3.2566 0.5476,-4.8354 0.6212,-2.7216 2.6204,-5.1925 5.3645,-5.9567 3.2023,-1.0643 6.5078,-1.2394 9.795,-1.8445 3.364,-0.5148 6.7442,-0.912 10.119,-1.3474 0,-4.3368 0,-8.6738 0,-13.0107 -32.0634,0 -64.1267,0 -96.1902,0 0,4.3258 0,8.6515 0,12.9773 7.3242,1.0074 14.6341,1.9883 21.9251,3.1512 2.7891,0.5855 5.7536,1.5865 7.579,3.9042 1.6922,2.346 1.5612,5.3946 1.5084,8.1492 -0.039,3.0909 0,6.1821 0,9.2739 -7e-4,4.6661 0.1118,9.3415 -0.2001,13.9998 -0.7788,8.6281 -4.9847,16.9705 -11.7508,22.4396 -6.3966,5.2977 -14.4064,8.2436 -22.4705,9.8579 -2.005,0.404 -4.0311,0.7255 -5.9971,0.9672 -5.6945,0.6702 -11.4459,0.9805 -17.1768,0.7127 -3.1272,-0.156 -6.2469,-0.5064 -9.3244,-1.0869 -0.7257,-0.1377 -1.6985,-0.3421 -2.5159,-0.5358 -2.159,-0.5058 -4.287,-1.1434 -6.368,-1.9097 -0.4699,-0.1808 -1.2175,-0.4664 -1.7869,-0.7063 -9.2069,-3.7231 -17.08,-10.3169 -22.9642,-18.2597 -4.4241,-5.9745 -7.8329,-12.6554 -10.4862,-19.5863 -0.6097,-1.6211 -1.2514,-3.4216 -1.8087,-5.1356 -2.7363,-8.3713 -4.5029,-17.0372 -5.568,-25.773 -0.071,-0.6667 -0.1802,-1.6091 -0.2659,-2.3817 -0.488,-4.7045 -0.8367,-9.4485 -0.8859,-14.1304 -0.1111,-9.8812 0.8111,-19.7668 2.5601,-29.4887 0.6888,-3.7869 1.5354,-7.5449 2.5515,-11.2575 0.2972,-1.0819 0.6722,-2.4123 1.0025,-3.487 3.5066,-11.7224 8.9699,-23.3238 17.4325,-32.41 4.2229,-4.6236 9.2248,-8.5542 14.8309,-11.3646 1.3518,-0.6891 2.5725,-1.2409 3.973,-1.8202 6.2409,-2.5839 12.9656,-3.8501 19.6962,-4.1624 0.5829,-0.026 1.4544,-0.048 2.1476,-0.06 12.9409,-0.2411 25.9801,2.6926 37.4146,8.8028 10.8389,5.7439 20.3799,14.0718 27.1695,24.3174 1.7202,2.6913 3.0973,5.5581 4.4652,8.3892 3.2575,6.6406 5.9933,13.5183 8.7361,20.3824 4.4007,-0.1888 8.8014,-0.3779 13.2021,-0.5675 -0.9653,-24.3446 -1.9246,-48.6894 -2.8881,-73.0341 -4.4201,0 -8.8401,0 -13.2601,0 -1.5476,2.7606 -3.182,5.5075 -5.3301,7.8492 -1.3555,1.9389 -2.7539,4.2191 -5.1684,4.9155 -1.2234,0.2815 -2.4765,-0.2002 -3.64,-0.5517 -2.7798,-1.0512 -5.2803,-2.7047 -8.0354,-3.8156 -15.0387,-6.8985 -31.3415,-11.4105 -47.9421,-11.8542 -1.4496,-0.057 -2.901,-0.055 -4.3517,-0.051 z m 371.9904,7.0113 c 0,3.1645 0,6.329 0,9.4936 7.1156,0.9749 14.2496,1.8053 21.3785,2.6687 3.2643,0.5873 6.726,1.2875 9.328,3.4862 1.8886,1.5615 2.5649,4.0836 2.5922,6.4457 0.03,2.4947 -0.045,4.9898 -7e-4,7.4848 -0.01,49.4636 0.029,98.9277 -0.028,148.391 -0.075,2.9873 -1.3758,6.2276 -4.1694,7.6326 -2.6034,1.3686 -5.6885,1.8547 -8.4887,2.1767 -6.3906,0.6814 -12.8347,1.331 -19.2557,1.9409 -0.4015,0.1799 -1.3887,-0.1717 -1.3565,0.4019 0,4.2797 0,8.5594 0,12.8392 64.2099,0 128.4199,0 192.6298,0 0.9987,-18.0545 2.0016,-36.1086 3.0023,-54.163 -4.5284,0 -9.0567,0 -13.5851,0 -1.1372,4.0188 -2.3245,8.0993 -3.6132,12.0021 -1.3109,3.9631 -2.7139,7.81 -4.3407,11.672 -2.0211,5.4088 -6.2893,9.8725 -11.4713,12.3673 -3.4083,1.603 -7.1409,2.4391 -10.8861,2.7252 -0.315,0.022 -1.0094,0.078 -1.364,0.091 -0.95,0.055 -1.8242,0.082 -2.8272,0.098 -9.1093,0.011 -18.2192,-0.019 -27.3287,0 -11.0656,0 -22.1325,0.027 -33.1972,-0.054 -3.7002,-0.2035 -7.6288,-0.6023 -10.773,-2.7446 -2.0754,-1.3522 -3.1664,-3.7721 -3.4117,-6.1744 -0.3263,-2.7857 -0.075,-5.596 -0.1493,-8.3927 0,-22.2383 0,-44.4767 0,-66.715 15.7121,0.024 31.4255,-0.053 47.1369,0.049 3.1072,0.1651 6.4453,1.4025 8.1789,4.1263 2.1419,3.3224 2.1895,7.4027 2.7681,11.1871 0.8036,5.0234 1.4945,10.0652 2.2523,15.0961 4.3726,0 8.7453,0 13.1178,0 0,-25.2781 0,-50.5563 0,-75.8344 -4.3778,0 -8.7557,0 -13.1336,0 -0.8294,6.3596 -1.9497,12.6766 -3.1896,18.9674 -0.4899,3.1672 -1.3015,6.6047 -3.8168,8.8034 -2.4814,2.1295 -5.9238,2.3935 -9.0536,2.4066 -14.7532,-0.026 -29.5069,0 -44.2604,-0.01 0.021,-22.0845 -0.045,-44.1699 0.043,-66.2537 0.1565,-2.8018 0.6816,-5.9139 2.8779,-7.8776 2.0592,-1.6979 4.8102,-2.2011 7.3967,-2.4576 4.0148,-0.2893 8.0456,-0.1249 12.0674,-0.1689 13.2128,0.023 26.4271,-0.068 39.6389,0.061 1.6962,0.057 3.4646,0.2614 5.0407,0.5482 0.3295,0.058 0.9786,0.1882 1.4297,0.2928 5.0613,1.1284 9.9559,3.5279 13.4507,7.4309 2.7073,2.9009 4.3658,6.5747 5.6815,10.272 2.6248,6.7472 4.7938,13.6629 6.7137,20.641 4.53,0 9.0602,0 13.5903,0 -1.0021,-18.1509 -2.0025,-36.3018 -3.0023,-54.4529 -58.9238,0 -117.8476,0 -176.7713,0 -0.31,-0.2016 -0.9995,-1.3197 -0.8416,-0.3917 0,1.2977 0,2.5953 0,3.893 z m -1597.32794,-1.7041 c 0,3.421 0,6.842 0,10.263 6.83108,2.4719 13.66531,4.9752 20.27746,7.9904 5.75811,3.159 9.98874,8.3923 13.5992,13.7558 2.69975,4.1826 5.18713,8.4995 7.75276,12.7654 15.59782,26.2781 31.23107,52.5384 46.84147,78.8106 -0.0261,18.828 0.0558,37.6573 -0.0513,56.4846 -0.12772,2.803 -1.27553,5.866 -3.88101,7.244 -4.1155,2.1205 -8.85722,2.0622 -13.3406,2.6575 -5.22248,0.5756 -10.45998,1.0614 -15.70018,1.5921 0,4.3672 0,8.7346 0,13.102 35.0019,0 70.0037,0 105.00564,0 0,-4.3422 0,-8.6844 0,-13.0265 -7.48593,-0.9891 -15.00996,-1.6812 -22.48605,-2.7446 -3.23115,-0.602 -6.63743,-1.7312 -8.81504,-4.331 -1.96038,-2.4133 -2.08945,-5.682 -2.00805,-8.6516 0.0675,-3.8828 -0.0207,-7.7664 0.0117,-11.65 0,-15.0965 0,-30.1932 0,-45.2898 18.47592,-28.3566 36.91334,-56.739 55.42664,-85.0709 4.3821,-6.2959 9.3103,-12.4699 15.8901,-16.5883 3.5725,-2.26 7.7916,-3.0549 11.7689,-4.3106 3.1876,-0.8898 6.4086,-1.6518 9.6261,-2.4246 0,-4.1255 0,-8.251 0,-12.3764 -26.6227,0 -53.2453,0 -79.868,0 0,4.218 0,8.436 0,12.654 7.87527,1.1896 15.77339,2.2378 23.6331,3.5237 1.981,0.4969 4.116,1.4275 5.1292,3.3085 0.7095,1.6102 -0.08,3.3957 -0.8385,4.838 -1.2012,2.0747 -2.6748,3.9762 -3.9112,6.0299 -15.63507,23.8877 -31.27003,47.7755 -46.90508,71.6632 -15.46703,-26.4747 -30.97508,-52.9258 -46.39632,-79.4264 -0.48311,-0.9649 -1.09007,-2.3528 -0.20904,-3.2735 2.43989,-2.2715 5.85867,-2.8684 9.005,-3.5334 5.76566,-1.0732 11.52827,-2.164 17.29034,-3.2583 0,-4.1752 0,-8.3505 0,-12.5257 -32.28236,0 -64.56472,0 -96.84717,0 0,0.5996 0,1.1993 0,1.7989 z m 432.22304,0 c 0,3.8216 0,7.6432 0,11.4647 7.8885,0.3281 15.8697,0.9191 23.4397,3.3143 2.8099,0.8956 5.4759,2.2875 7.6751,4.2685 3.6846,3.0611 6.2835,7.4238 7.0489,12.167 0.7033,4.4182 0.2022,8.9024 0.3588,13.3506 -0.01,44.8395 0.026,89.6795 -0.029,134.5187 -0.073,3.1034 -1.2945,6.4776 -4.0964,8.1087 -2.9235,1.7354 -6.4421,2.019 -9.69,2.36 -3.5077,0.3759 -6.997,0.9054 -10.5057,1.2801 -3.1022,0.3596 -6.2048,0.7169 -9.3074,1.0733 0,4.2531 0,8.5063 0,12.7595 29.1266,0 58.2533,0 87.3799,0 0,-4.2995 0,-8.5988 0,-12.8983 -4.2272,-0.2999 -8.4554,-0.597 -12.6716,-1.0294 -0.9153,-0.1101 -2.0716,-0.227 -3.0799,-0.3549 -1.6282,-0.2004 -3.4194,-0.4645 -5.0065,-0.7291 -1.4365,-0.2443 -2.8078,-0.527 -4.2865,-0.7905 -2.8168,-0.5955 -5.8687,-1.3571 -7.8686,-3.5803 -1.985,-2.3889 -2.0758,-5.6719 -2.0263,-8.6292 0.046,-4.7437 -0.015,-9.4883 0.01,-14.2326 0,-37.5079 0,-75.0157 0,-112.5236 46.3938,52.8583 92.7885,105.7159 139.1817,158.5748 3.3355,0 6.671,0 10.0066,0 0.01,-61.524 -0.024,-123.0483 0.022,-184.572 0.083,-2.8126 0.7387,-5.954 3.0712,-7.7802 2.6411,-1.8553 5.9548,-2.288 9.0843,-2.6474 7.0632,-0.6598 14.0934,-1.6201 21.1199,-2.5878 0,-4.2279 0,-8.4558 0,-12.6838 -29.1255,0 -58.251,0 -87.3765,0 0,4.2678 0,8.5355 0,12.8033 7.9604,0.8528 15.8997,1.4547 23.8272,2.4676 3.2386,0.5265 6.6259,1.6149 8.8913,4.1113 2.0402,2.314 2.2894,5.5673 2.2325,8.5153 -0.09,4.1742 0.012,8.3492 -0.023,12.5243 0,32.9516 0,65.9032 0,98.8548 -40.5154,-46.4254 -81.029,-92.8523 -121.5456,-139.2766 -21.945,0 -43.8899,0 -65.8349,0 0,0.5996 0,1.1993 0,1.7989 z m 253.9779,0 c 0,3.8216 0,7.6432 0,11.4647 8.3839,0.3589 16.9062,0.9773 24.8748,3.8039 4.6406,1.8262 8.6325,5.2904 11.1004,9.6224 2.1315,3.8552 2.7535,8.3553 2.5472,12.707 -0.01,47.1619 0.026,94.3242 -0.029,141.4858 -0.076,3.1148 -1.3008,6.5054 -4.1261,8.1263 -3.5969,2.0939 -7.8815,2.0676 -11.8915,2.5877 -5.8461,0.8057 -11.7177,1.4167 -17.5783,2.1081 0,4.2531 0,8.5063 0,12.7595 29.1255,0 58.2509,0 87.3764,0 0,-4.2995 0,-8.5988 0,-12.8983 -4.2266,-0.2999 -8.4541,-0.5971 -12.6698,-1.0294 -0.9153,-0.1101 -2.0717,-0.227 -3.0799,-0.3549 -2.1293,-0.2614 -4.2411,-0.5844 -6.3662,-0.9698 -0.9904,-0.205 -2.2051,-0.4013 -3.2808,-0.6216 -2.7687,-0.6072 -5.7785,-1.4184 -7.6656,-3.6877 -1.9373,-2.5196 -1.918,-5.8676 -1.8687,-8.8962 0.033,-4.7449 -0.016,-9.4907 0,-14.2362 0,-37.3556 0,-74.7112 0,-112.0667 46.3942,52.8557 92.7868,105.7127 139.1818,158.5677 3.3356,0 6.6711,0 10.0065,0 0.01,-61.5749 -0.026,-123.1502 0.024,-184.7248 0.097,-2.8063 0.8084,-5.932 3.1711,-7.7082 2.6521,-1.7842 5.9243,-2.2217 9.0318,-2.5744 7.0475,-0.649 14.0601,-1.6183 21.0704,-2.58 0,-4.2279 0,-8.4558 0,-12.6838 -29.1266,0 -58.2533,0 -87.3799,0 0,4.2678 0,8.5355 0,12.8033 7.9651,0.8529 15.9089,1.456 23.8412,2.4688 3.2351,0.5257 6.6168,1.6165 8.8795,4.1099 2.0561,2.3425 2.2971,5.6307 2.2321,8.6089 -0.087,3.9775 0.015,7.9554 -0.02,11.9338 0,33.1172 0,66.2346 0,99.3519 -40.5161,-46.4254 -81.0303,-92.8523 -121.5474,-139.2766 -21.9461,0 -43.8922,0 -65.8384,0 0,0.5996 0,1.1993 0,1.7989 z m 664.6541,0 c 5e-4,3.6308 0,7.2597 0,10.8919 4.6071,0.6505 9.2244,1.2232 13.8328,1.864 1.7599,0.2671 3.7014,0.5394 5.5232,0.8661 3.2496,0.625 6.5702,1.1159 9.6529,2.3678 1.6445,0.6751 3.3318,1.8172 3.7444,3.6619 0.7897,2.9023 0.4724,5.9467 0.543,8.9179 0.019,32.7405 -0.043,65.4814 0.041,98.2216 0.3016,13.9417 1.6605,28.073 6.4572,41.2615 3.6113,10.1062 9.8233,19.45 18.473,25.9168 7.8683,5.9279 17.3084,9.3941 26.8802,11.4077 10.1075,2.1047 20.45,2.7767 30.7513,3.0249 8.4614,0.1373 16.9599,0.1022 25.359,-1.0482 10.7635,-1.4243 21.4677,-4.4842 30.7614,-10.22 10.2302,-6.274 18.1799,-15.971 22.8403,-26.9881 5.4272,-12.4984 7.4053,-26.1867 7.9351,-39.7139 0.1956,-6.2721 0.126,-12.55 0.1506,-18.8247 -0.013,-23.0638 0,-46.1276 -0.01,-69.1914 0.02,-6.4593 -0.01,-12.9205 0.058,-19.3785 0.1635,-2.4837 0.7577,-5.3005 2.9251,-6.8186 1.8974,-1.1682 4.1073,-1.7026 6.2765,-2.1118 0.27,-0.047 0.9673,-0.1641 1.4038,-0.2212 2.1633,-0.3025 4.5599,-0.5034 6.8161,-0.7752 5.3967,-0.527 10.786,-1.1344 16.1482,-1.9445 0,-4.2244 0,-8.4488 0,-12.6733 -29.1266,0 -58.2532,0 -87.3799,0 0,4.2912 0,8.5824 0,12.8736 7.8915,0.7337 15.8422,0.9537 23.6737,2.2394 2.6782,0.5259 5.4519,1.1381 7.7338,2.7083 1.9365,1.3701 3.151,3.6168 3.3255,5.9742 0.1315,0.9584 0.1856,1.9598 0.21,2.8301 0.024,3.0151 -0.066,6.0298 -0.012,9.0449 -0.016,32.3454 0.045,64.6912 -0.041,97.0364 -0.048,2.7899 -0.1721,5.7277 -0.3684,8.4161 -0.6962,9.184 -2.4384,18.4378 -6.5352,26.7556 -3.7175,7.771 -9.9184,14.4693 -17.4388,18.7762 -2.9893,1.7113 -6.1664,3.0818 -9.4222,4.1988 -0.5495,0.1789 -1.3782,0.4539 -2.0397,0.6507 -9.7302,2.8984 -19.9917,3.5487 -30.0918,3.1311 -2.6284,-0.1443 -5.2513,-0.406 -7.849,-0.8357 -1.1761,-0.1919 -2.5549,-0.459 -3.7977,-0.7457 -7.1682,-1.6287 -14.1398,-4.7855 -19.4619,-9.9478 -3.0953,-2.9751 -5.6022,-6.5298 -7.5436,-10.3509 -0.118,-0.2649 -0.4632,-0.9371 -0.6572,-1.3673 -3.7893,-8.316 -5.1929,-17.4837 -5.7938,-26.5356 -0.4853,-7.3801 -0.3303,-14.8035 -0.3919,-22.2327 0,-27.2946 0.01,-54.5891 0,-81.8838 0.015,-6.2514 -0.01,-12.505 0.06,-18.7551 0.1433,-2.3156 1.5153,-4.6363 3.7642,-5.4474 3.848,-1.6814 8.1083,-1.8938 12.2258,-2.3568 5.7542,-0.5236 11.5122,-1.01 17.2499,-1.6965 0,-4.2573 0,-8.5145 0,-12.7717 -35.3286,0 -70.6572,0 -105.9859,0 0,0.5996 0,1.1993 0,1.7989 z m 701.2195,0 c 0,3.7326 0,7.4651 0,11.1977 7.1156,0.975 14.2497,1.8051 21.3785,2.6689 3.2639,0.5876 6.7256,1.2891 9.3281,3.4859 1.8372,1.5244 2.5486,3.966 2.5859,6.2766 0.051,2.4304 -0.052,4.8616 0.01,7.2925 -0.01,49.5865 0.026,99.1734 -0.029,148.7595 -0.074,2.9831 -1.3715,6.2183 -4.1628,7.6203 -3.9425,2.0318 -8.4822,2.1287 -12.776,2.6211 -5.436,0.6132 -10.887,1.088 -16.3302,1.6339 0,4.3696 0,8.7393 0,13.109 64.2105,0 128.421,0 192.6316,0 0.9976,-18.0545 1.9989,-36.1087 2.9987,-54.163 -4.5278,0 -9.0556,0 -13.5833,0 -2.4398,8.7443 -5.1798,17.4334 -8.838,25.7522 -2.8654,5.5849 -8.0793,9.8952 -14.1097,11.6455 -6.345,2.0086 -13.0786,1.5023 -19.635,1.5543 -17.4512,-0.019 -34.9036,0.052 -52.3541,-0.048 -3.731,-0.2001 -7.6951,-0.589 -10.8664,-2.7504 -1.975,-1.295 -3.0786,-3.5585 -3.3671,-5.8535 -0.3905,-2.8564 -0.1121,-5.7466 -0.1903,-8.6184 0,-22.2695 0,-44.5389 0,-66.8084 15.7121,0.024 31.4255,-0.054 47.1368,0.049 3.1313,0.1651 6.4998,1.4214 8.2155,4.1914 2.1399,3.3629 2.1519,7.4773 2.7547,11.2909 0.7928,4.9673 1.4763,9.9526 2.2257,14.927 4.3726,0 8.7452,0 13.1177,0 0,-25.2781 0,-50.5562 0,-75.8344 -4.3778,0 -8.7556,0 -13.1335,0 -0.6788,5.088 -1.4871,10.1681 -2.4578,15.1653 -0.4563,2.1464 -0.7756,4.3184 -1.2385,6.4623 -0.645,2.7668 -1.992,5.6209 -4.5859,7.039 -3.1162,1.7249 -6.81,1.5039 -10.2524,1.4977 -13.9271,0.01 -27.8549,0 -41.7823,0 0.02,-22.0756 -0.044,-44.1523 0.042,-66.2273 0.143,-2.8203 0.6861,-5.9442 2.8919,-7.9206 1.9264,-1.5895 4.4869,-2.1071 6.9071,-2.3928 3.7401,-0.3523 7.5039,-0.1672 11.2547,-0.2185 13.6122,0.024 27.2255,-0.066 40.8368,0.058 1.7254,0.056 3.5261,0.2595 5.1305,0.5523 0.3582,0.067 1.0363,0.199 1.5208,0.3137 5.0864,1.1473 9.9959,3.5911 13.4815,7.5405 2.2181,2.4456 3.77,5.4174 4.9353,8.4873 0.2473,0.6981 0.6151,1.6258 0.9151,2.4114 2.4992,6.506 4.573,13.1671 6.4247,19.8838 4.5289,0 9.0579,0 13.5868,0 -1.0008,-18.1515 -1.9986,-36.3031 -2.997,-54.4546 -59.2055,0 -118.4109,0 -177.6164,0 0,0.5996 0,1.1993 0,1.799 z m -146.149,9.3074 c 12.467,0.016 25.0981,1.6281 36.7401,6.2657 9.9324,3.9186 18.9667,10.2196 25.8029,18.4491 8.0201,9.5717 13.0703,21.3191 15.9604,33.3901 3.325,13.9452 4.0707,28.3888 3.4482,42.6741 -0.4683,9.0723 -1.6453,18.1313 -3.9178,26.9364 -0.2076,0.7946 -0.4849,1.8359 -0.743,2.718 -0.7968,2.7951 -1.722,5.553 -2.7617,8.2669 -0.2257,0.5482 -0.5365,1.372 -0.8147,2.0192 -3.9408,9.6494 -9.8176,18.5863 -17.5663,25.6025 -0.2967,0.263 -0.8282,0.7455 -1.2336,1.0849 -2.9294,2.5261 -6.1212,4.7377 -9.4651,6.6783 -0.725,0.4096 -1.6675,0.9363 -2.496,1.3584 -2.2481,1.1645 -4.4714,2.1521 -6.8481,3.0839 -9.1926,3.5799 -19.1967,5.1933 -28.9254,5.617 -6.9511,0.1891 -13.9329,0.1615 -20.8476,-0.6518 -3.9477,-0.5593 -8.0862,-1.2952 -11.3786,-3.698 -2.9149,-2.141 -4.1704,-5.7993 -4.5835,-9.2608 -0.4715,-4.1511 -0.229,-8.339 -0.2917,-12.5069 0.01,-47.6193 -0.022,-95.2389 0.026,-142.8579 0.1112,-3.4812 0.7768,-7.2616 3.3057,-9.8461 2.3467,-2.2623 5.5687,-3.3121 8.6873,-3.9953 3.4229,-0.691 6.9142,-0.9875 10.3972,-1.1679 0.9226,-0.032 2.088,-0.086 3.1048,-0.1041 1.4665,-0.038 2.9333,-0.048 4.4002,-0.056 z m -1581.2782,108.3926 c -20.9114,0 -41.8228,0 -62.7342,0 10.5477,-24.0759 21.0953,-48.1518 31.6429,-72.2278 10.3639,24.076 20.7276,48.1519 31.0913,72.2278 z" />
      <path
         id="text32407-66"
         style="font-style:normal;font-variant:normal;font-weight:normal;font-stretch:normal;font-size:192px;line-height:3.5;font-family:'Bohemia LT Std';-inkscape-font-specification:'Bohemia LT Std, Normal';font-variant-ligatures:normal;font-variant-caps:normal;font-variant-numeric:normal;font-variant-east-asian:normal;white-space:pre;shape-inside:url(#rect32409-8);display:inline;fill:#f3cf61;fill-opacity:1;stroke-width:0.560808;-inkscape-stroke:none;stop-color:#000000"
         d="m 1922.5463,3421.7695 c -7.7244,1.6226 -15.3386,3.8005 -22.6859,6.694 -23.1836,9.038 -43.9769,24.3969 -58.9336,44.3326 -10.594,14.1092 -18.2012,30.6559 -20.8411,48.1668 -1.7476,11.9895 -1.2829,24.3653 1.8767,36.0866 2.7893,10.2371 8.1445,19.9377 16.122,27.0367 7.4304,6.704 16.9723,10.7857 26.7925,12.3998 10.8645,1.7059 22.1509,1.058 32.6612,-2.2437 9.9924,-3.1361 19.2211,-8.9505 25.9443,-17.0292 5.6274,-6.6918 9.4825,-14.8976 10.788,-23.559 1.438,-9.3005 0.1717,-19.0741 -3.9311,-27.5694 -4.2554,-8.673 -11.5732,-15.6786 -20.1682,-20.0091 -11.1223,-5.679 -24.0674,-7.418 -36.3724,-5.5957 -2.9836,0.3997 -5.8847,1.2139 -8.8059,1.9147 0.6881,3.311 1.3741,6.6223 2.0642,9.9328 2.084,0.041 4.2341,-0.094 6.2469,-0.2371 2.873,-0.1294 5.774,0.2246 8.5397,1.0119 4.2764,1.2194 8.2201,3.6841 10.9992,7.1798 4.3866,5.3141 6.4465,12.1301 7.3966,18.8534 0.1225,0.9492 0.2261,1.89 0.297,2.7604 0.099,1.1566 0.1641,2.3461 0.1966,3.4153 0.1118,3.9933 -0.04,8.0883 -0.431,12.16 -0.085,0.6892 -0.2017,1.6513 -0.32,2.4422 -0.8936,6.0669 -2.8002,12.2159 -6.8511,16.9473 -2.9446,3.3179 -7.087,5.5116 -11.4611,6.196 -3.2957,0.5565 -6.9621,0.6797 -10.2249,-0.467 -4.6652,-1.6895 -8.1842,-5.5533 -10.5794,-9.7836 -0.3304,-0.5671 -0.6925,-1.2514 -0.9227,-1.7155 -2.123,-4.2108 -3.4604,-8.6295 -4.4576,-13.2733 -0.2011,-0.9861 -0.4406,-2.2032 -0.6237,-3.2852 -1.3544,-8.1664 -1.6217,-16.481 -1.3141,-24.7423 0.028,-0.4385 0.063,-1.1981 0.094,-1.7596 0.041,-0.9455 0.1147,-1.8266 0.1848,-2.83 0.4841,-6.4483 1.4416,-12.8638 2.9273,-19.1584 0.2125,-0.8542 0.4744,-1.952 0.7294,-2.8934 1.2862,-4.8868 2.9022,-9.6891 4.8747,-14.3422 0.433,-0.9976 0.9535,-2.1983 1.4578,-3.2588 1.4904,-3.1855 3.2476,-6.4686 5.1398,-9.5392 3.9153,-6.3792 8.6067,-12.2872 13.9812,-17.4993 0.4702,-0.4513 1.1428,-1.0974 1.7061,-1.6073 10.8912,-10.0634 24.2367,-17.2439 38.3195,-21.7346 1.6967,-0.5584 3.4063,-1.0773 5.1075,-1.6218 -1.3104,-4.044 -2.6165,-8.0893 -3.9245,-12.134 -0.533,0.1194 -1.0658,0.239 -1.5987,0.3584 z m 466.0251,0 c -7.6961,1.6165 -15.283,3.7839 -22.6054,6.6621 -23.2152,9.0352 -44.041,24.4043 -59.0142,44.3645 -10.5943,14.1087 -18.2015,30.656 -20.841,48.1668 -1.6619,11.4018 -1.3228,23.1477 1.4293,34.3557 2.5776,10.5699 7.8206,20.6661 15.8522,28.1131 6.5107,6.1181 14.7694,10.1956 23.4322,12.2338 7.0786,1.6641 14.428,2.0443 21.6662,1.4911 10.5724,-0.8427 21.0534,-4.0601 29.9037,-9.9838 10.1384,-6.7547 17.9802,-17.1429 20.9783,-29.0154 2.6543,-10.397 1.7891,-21.7298 -2.7309,-31.4889 -4.2025,-8.9396 -11.6597,-16.1671 -20.4453,-20.5916 -11.0946,-5.6681 -24.0056,-7.4096 -36.2838,-5.6107 -3.0146,0.3996 -5.9457,1.2202 -8.8966,1.9284 0.6879,3.3112 1.376,6.6222 2.066,9.9328 2.084,0.041 4.2341,-0.094 6.2469,-0.2371 2.873,-0.1294 5.774,0.2246 8.5396,1.0119 4.2336,1.2084 8.1445,3.6335 10.9153,7.0795 1.5774,1.8693 2.9436,4.127 3.9243,6.2403 2.1597,4.6759 3.2992,9.7704 3.8016,14.8798 0.057,0.592 0.1244,1.4742 0.1665,2.1785 0.1666,2.9535 0.1529,5.9141 0.01,8.8138 -0.096,2.0254 -0.204,4.113 -0.4653,6.042 -0.7654,6.2703 -2.4684,12.6614 -6.408,17.7247 -3.2057,4.1224 -8.2058,6.6412 -13.3628,7.1827 -3.9251,0.5231 -8.1517,0.2416 -11.595,-1.8874 -3.9265,-2.3 -6.743,-6.0726 -8.7891,-10.0646 -0.1195,-0.2577 -0.4341,-0.8548 -0.6146,-1.2586 -0.571,-1.2009 -1.0661,-2.4364 -1.5322,-3.6813 -0.1515,-0.4395 -0.4211,-1.1716 -0.5975,-1.7299 -0.8358,-2.5351 -1.5027,-5.2112 -2.001,-7.7478 -1.7518,-8.9051 -2.0753,-18.0335 -1.7477,-27.0842 0.028,-0.4385 0.063,-1.1981 0.094,-1.7596 0.041,-0.9455 0.1147,-1.8266 0.1847,-2.83 0.2414,-3.1978 0.6011,-6.4527 1.07,-9.5144 1.3317,-8.8395 3.6554,-17.6598 7.0872,-25.9796 0.6796,-1.6493 1.4489,-3.3696 2.2488,-5.0442 0.3954,-0.8088 0.9027,-1.8359 1.3614,-2.7178 5.7709,-11.1485 13.8151,-21.135 23.623,-28.9862 10.1293,-8.1746 21.9587,-14.0832 34.3432,-17.9887 1.5025,-0.477 3.0071,-0.9474 4.5098,-1.4241 -1.3105,-4.044 -2.6166,-8.0893 -3.9247,-12.134 -0.5328,0.1194 -1.0657,0.239 -1.5986,0.3584 z m 84.5251,0.325 c -9.6516,0.2151 -19.4718,1.8599 -28.1224,6.3226 -7.0329,3.5511 -12.988,9.2878 -16.5441,16.341 -2.8616,5.7444 -4.2324,12.1893 -4.2587,18.5927 0.01,4.9727 1.2181,9.8901 3.0545,14.49 3.6642,9.0813 10.0746,16.8106 17.4667,23.126 1.8432,1.5799 3.7549,3.0791 5.7188,4.5057 -10.3262,5.7808 -19.8733,13.324 -26.7842,23.0172 -4.2003,5.9497 -7.5764,12.7314 -8.3491,20.0573 -1.4251,8.4012 -0.5266,17.3408 3.3983,24.9765 3.918,7.6197 10.7681,13.4393 18.4557,17.0439 9.7696,4.6718 20.646,6.4823 31.3896,6.9539 10.931,0.4166 22.058,-0.3763 32.5063,-3.8043 6.8449,-2.2284 13.3523,-5.7036 18.6304,-10.6418 4.8333,-4.4284 8.5152,-10.0504 10.799,-16.1853 2.5138,-6.6855 3.51,-13.8943 3.3028,-21.0161 -0.556,-8.6305 -4.0721,-16.9438 -9.486,-23.6468 -6.4526,-8.1602 -14.875,-14.4755 -23.5182,-20.1392 -1.1504,-0.7355 -2.2798,-1.5026 -3.4089,-2.2703 9.1956,-5.4109 17.2802,-13.0845 22.1325,-22.6734 3.2912,-6.5745 5.4252,-13.9832 4.6518,-21.3876 -0.7715,-7.8051 -4.5513,-15.2461 -10.3687,-20.502 -6.6202,-6.1282 -15.1947,-9.7626 -23.9335,-11.643 -5.4892,-1.1812 -11.1222,-1.6482 -16.7326,-1.517 z m 201.4241,0 c -9.65,0.2163 -19.4697,1.8598 -28.1189,6.3208 -7.3515,3.706 -13.5212,9.8145 -17.0135,17.2961 -2.8319,6.1964 -4.0904,13.1025 -3.7236,19.9 0.8177,9.659 5.2687,18.7109 11.3554,26.1378 4.2877,5.2182 9.358,9.7582 14.8154,13.7215 -10.3518,5.8 -19.9254,13.3655 -26.8407,23.0964 -4.1715,5.9315 -7.5254,12.6856 -8.2927,19.9798 -1.4325,8.4316 -0.5154,17.4061 3.4395,25.0605 3.7516,7.2077 10.1069,12.837 17.3338,16.4256 9.4731,4.8011 20.1125,6.7677 30.637,7.399 11.0341,0.5739 22.2726,-0.044 32.9004,-3.2602 6.8102,-2.0496 13.3386,-5.2594 18.7482,-9.9209 5.031,-4.242 8.9777,-9.7186 11.4969,-15.7926 2.9811,-7.1103 4.1416,-14.903 3.9284,-22.5827 -0.5655,-8.6868 -4.114,-17.0544 -9.5905,-23.7803 -6.5216,-8.1945 -15.0184,-14.5265 -23.7296,-20.2125 -1.0453,-0.668 -2.0673,-1.3709 -3.095,-2.0653 9.2115,-5.4178 17.3058,-13.1105 22.1567,-22.7192 3.2883,-6.5787 5.4063,-13.9956 4.6234,-21.4003 -0.7833,-7.7226 -4.4998,-15.088 -10.2323,-20.3198 -6.5901,-6.1612 -15.1558,-9.8219 -23.8879,-11.7294 -5.5457,-1.2077 -11.2395,-1.6858 -16.9104,-1.5543 z m -200.9409,13.4269 c 3.8355,-0.047 7.9244,0.6676 11.3117,2.1574 4.0222,1.7174 7.3059,4.9219 9.3988,8.7346 0.1358,0.2595 0.4505,0.8367 0.6325,1.2288 1.7713,3.7002 2.6249,7.7846 2.881,11.8627 0.017,0.4111 0.054,0.9243 0.064,1.4145 0.2616,7.7699 -1.6125,15.7816 -6.2187,22.1391 -2.1188,3.0028 -4.7191,5.6402 -7.532,7.9944 -5.3698,-3.4012 -10.8667,-6.6093 -16.1054,-10.2129 -5.9169,-4.3054 -11.2846,-9.6289 -14.6862,-16.1725 -2.0087,-3.8564 -3.093,-8.2473 -2.6878,-12.6042 0.3223,-4.4331 2.1362,-8.9521 5.7223,-11.7336 4.0561,-3.2339 9.3351,-4.3908 14.4071,-4.7176 0.9361,-0.064 1.8748,-0.081 2.813,-0.091 z m 201.4276,0 c 5.4782,-0.022 11.1996,1.2465 15.5624,4.7142 4.2986,3.4228 6.8584,8.6025 7.9423,13.9106 0.3757,1.7637 0.6041,3.5575 0.7158,5.3569 0.016,0.4033 0.051,0.929 0.062,1.4146 0.2629,7.7543 -1.6013,15.7479 -6.1898,22.0991 -2.1183,3.0235 -4.7395,5.6637 -7.5539,8.0396 -5.2904,-3.3511 -10.7097,-6.5081 -15.8729,-10.0564 -3.3941,-2.4355 -6.5784,-5.1846 -9.3543,-8.3124 -0.3209,-0.3563 -0.8735,-1.0021 -1.169,-1.3748 -1.6829,-2.0555 -3.1706,-4.2741 -4.3859,-6.6378 -0.1245,-0.2607 -0.4386,-0.8816 -0.6188,-1.285 -2.7497,-5.7712 -2.9735,-12.8212 -0.092,-18.5862 2.199,-4.1461 6.4621,-6.8399 10.9101,-8.0223 1.4189,-0.4168 3.0706,-0.7201 4.4115,-0.9034 0.8003,-0.1066 1.5408,-0.1742 2.4059,-0.2373 1.0732,-0.084 2.1502,-0.1075 3.2263,-0.1194 z m -528.9667,34.712 c -10.0375,0.1332 -20.2318,2.3888 -28.8719,7.6397 -6.0047,3.6903 -11.3323,8.839 -14.2881,15.3163 -1.298,2.8242 -2.0621,5.9059 -2.0241,9.0243 -0.018,4.5963 1.39,9.3884 4.6484,12.7383 3.2378,3.2631 7.8657,4.8375 12.4027,4.9221 4.9355,0.213 10.1809,-0.62 14.2241,-3.6392 3.6985,-2.7041 5.6205,-7.3733 5.4519,-11.8902 -0.097,-3.3713 -1.1881,-6.7146 -3.2056,-9.4288 -0.9671,-1.5095 -2.5387,-2.7249 -2.7837,-4.606 -0.3502,-1.5646 0.4987,-3.1419 1.7957,-3.9974 2.541,-1.7605 5.7534,-2.054 8.7576,-2.1514 4.579,-0.067 9.4176,0.6852 13.2073,3.4253 3.5464,2.5939 5.4616,6.8126 6.3586,11.0068 1.0498,4.8506 1.0509,9.8508 0.9522,14.7894 -0.2397,6.9075 -1.7568,14.0104 -5.7627,19.7614 -2.9731,4.3324 -7.3709,7.5494 -12.2205,9.4941 -1.2085,0.5011 -2.279,0.8595 -3.5388,1.2459 -5.2795,1.6183 -10.8298,1.8642 -16.2786,2.5173 -0.8451,0.091 -1.6903,0.1808 -2.5356,0.271 0.321,5.0687 0.6399,10.1377 0.961,15.2065 3.4177,-0.2178 6.8324,-0.4871 10.2525,-0.6658 0.6843,-0.024 1.6421,-0.067 2.4327,-0.067 1.7254,-0.02 3.4907,0.026 5.1355,0.1078 7.4212,0.4164 14.955,2.5002 20.8966,7.1099 6.2968,4.7461 10.3717,12.1085 11.5866,19.8516 0.8365,4.9481 0.4719,9.9985 -0.068,14.9573 -0.8142,6.6088 -2.7175,13.284 -6.7497,18.6806 -3.0129,3.9811 -7.3869,6.9992 -12.1126,8.4258 -2.7322,0.8924 -5.5941,1.2995 -8.4518,1.5196 -0.8728,0.065 -1.985,0.1171 -2.9513,0.1669 -0.6931,0.025 -1.6479,0.061 -2.4172,0.082 -4.259,0.2118 -8.5801,-0.025 -12.6914,-1.2293 -1.0638,-0.2826 -2.1636,-0.5395 -3.1056,-1.133 1.3454,-2.8419 3.2137,-5.5723 3.55,-8.7719 0.3253,-5.4025 -2.027,-10.9597 -6.3631,-14.2588 -3.6635,-2.9544 -8.4502,-4.3624 -13.1303,-4.0922 -7.1685,0.3492 -14.1706,4.7289 -17.1454,11.3383 -2.0459,4.9431 -1.2365,10.7549 1.4361,15.3036 1.7486,3.0838 4.4091,5.5375 7.3566,7.4589 6.8036,4.5315 14.7777,6.9434 22.7577,8.3909 7.3244,1.2682 14.8015,1.7692 22.2201,1.1745 9.513,-0.4892 18.9663,-2.4926 27.8038,-6.0636 8.8126,-3.5972 17.0878,-8.911 23.2668,-16.2258 5.486,-6.5074 9.1216,-14.5863 10.1464,-23.0497 1.0533,-7.6735 0.1985,-15.7261 -3.2043,-22.743 -4.0679,-8.6717 -11.4584,-15.4567 -19.8462,-19.8921 -6.7598,-3.5684 -14.1463,-5.8406 -21.6557,-7.1758 8.508,-2.8431 16.7513,-7.1293 22.9903,-13.6898 5.4954,-5.7894 8.9847,-13.403 9.8908,-21.3267 0.8357,-6.3215 0.1936,-12.8725 -2.1809,-18.8113 -3.7025,-9.7271 -11.4863,-17.7023 -20.9194,-22.0131 -8.0851,-3.7676 -17.1169,-5.1142 -25.98,-5.0038 z m 943.8399,0.01 c -11.9821,0.2147 -24.0699,2.6213 -34.8082,8.0652 -5.4928,2.865 -10.783,6.6385 -14.0634,12.0078 -2.3663,3.8568 -3.1797,8.5663 -2.621,13.0264 0.6621,4.749 3.483,9.2631 7.7696,11.5309 5.7303,3.1235 12.83,3.0788 18.8215,0.7185 4.465,-1.6817 8.3669,-5.1675 9.9707,-9.7276 0.9574,-2.6781 0.9232,-5.6085 0.5109,-8.389 -0.2642,-1.7618 -1.0023,-3.397 -1.8658,-4.9371 -0.5536,-1.2557 -1.3914,-2.6629 -0.8868,-4.0668 1.1864,-1.7392 3.3937,-2.246 5.3077,-2.762 2.0981,-0.4976 4.2476,-0.7511 6.3942,-0.9307 0.7629,-0.055 1.7767,-0.1089 2.6393,-0.126 1.0586,-0.024 2.1176,-0.01 3.1756,0.03 0.5751,0.035 1.4201,0.063 2.1002,0.149 4.4631,0.4816 8.9517,2.6079 11.4581,6.4502 3.0372,4.403 3.854,9.8953 3.9322,15.1341 0.064,1.2685 0.03,2.5417 -0.1038,3.8049 -0.034,0.2581 -0.1086,0.9178 -0.1846,1.327 -0.7519,4.4936 -3.0805,8.545 -5.7199,12.1893 -4.5097,6.0659 -10.2284,11.0966 -16.0551,15.8577 -6.4366,5.2364 -13.1278,10.1516 -19.9759,14.8347 -9.1428,6.2861 -18.4641,12.3064 -27.8029,18.2954 -1.2216,-0.1534 -2.6581,0.4807 -2.8864,1.7923 -0.1133,0.8304 0.1217,1.6669 0.035,2.51 0,5.8372 0,11.6743 0,17.5114 38.1464,0 76.2929,0 114.4394,0 0,-14.5758 0,-29.1518 0,-43.7277 -3.64,0 -7.28,0 -10.9201,0 -2.1192,4.6023 -3.7218,9.5826 -7.0973,13.4691 -2.2895,2.5398 -5.7838,3.4315 -9.0347,3.9678 -7.0222,0.9972 -14.1831,1.1496 -21.2116,1.6873 -10.0376,0.6465 -20.0752,1.293 -30.1128,1.9395 10.4371,-5.5373 20.822,-11.2134 30.7189,-17.6798 9.7241,-6.4859 19.6617,-12.9026 27.8023,-21.3846 4.8704,-5.1424 9.0248,-11.282 10.5325,-18.2979 0.8648,-4.2009 0.7433,-8.5627 0.082,-12.7839 -0.8041,-5.2313 -2.8111,-10.288 -5.9771,-14.5422 -3.4632,-4.7738 -8.2606,-8.4601 -13.5421,-11.0237 -9.5258,-4.651 -20.3266,-6.0107 -30.8203,-5.9188 z m -284.7196,0.232 c -12.0781,0.1743 -24.2714,3.3598 -34.4117,10.041 -10.5877,6.8675 -18.7099,17.6803 -21.716,29.9951 -2.5835,10.8054 -1.485,22.5784 3.6089,32.5049 4.812,9.3125 13.2389,16.4859 22.8354,20.5372 11.6714,4.9918 24.8971,5.9609 37.2812,3.3831 1.6736,-0.386 3.331,-0.836 4.9982,-1.2497 -0.6944,-3.5517 -1.3909,-7.1031 -2.0852,-10.6548 -2.8745,0.5825 -5.8101,0.9603 -8.7467,0.7306 -4.4583,-0.2903 -8.9731,-1.4442 -12.6446,-4.0806 -3.734,-2.5254 -6.4558,-6.2858 -8.3069,-10.351 -3.0402,-6.7269 -4.0008,-14.2026 -3.9451,-21.5293 0.044,-7.4928 0.645,-15.1739 3.6003,-22.1467 0.5691,-1.3384 1.3608,-2.8385 2.0787,-3.9325 0.3205,-0.4976 0.7871,-1.1508 1.0623,-1.506 2.2799,-3.0242 5.4616,-5.3562 9.0714,-6.5254 3.6006,-1.1977 7.4892,-1.5692 11.2486,-1.0613 4.7281,0.8296 8.6542,4.1469 11.2603,8.0527 2.5297,3.6805 4.227,8.0072 5.4354,12.1938 2.213,7.6257 3.0291,15.6922 3.25,23.5354 0.1106,3.5927 0.075,7.1698 -0.098,10.7178 -0.22,4.5923 -0.7011,9.3956 -1.4177,13.9208 -0.5703,3.6166 -1.3318,7.3437 -2.2642,10.9578 -0.4676,1.8249 -0.9975,3.6889 -1.5383,5.4062 -1.1633,3.7761 -2.6371,7.6508 -4.1856,11.1576 -3.7996,8.5452 -8.8084,16.5728 -15.0045,23.5881 -0.6364,0.7224 -1.4373,1.6083 -2.1614,2.3704 -8.3515,8.8901 -18.5465,15.9635 -29.6151,21.0474 -0.8148,0.3727 -1.8568,0.8429 -2.7694,1.2268 -5.1374,2.2163 -10.4492,3.9959 -15.8084,5.5911 1.66,3.9998 3.3239,7.998 4.9857,11.997 11.448,-2.3254 22.655,-5.9282 33.1886,-10.9976 22.8126,-10.9391 42.7758,-28.1819 55.9801,-49.8476 7.5679,-12.42 12.8724,-26.3281 14.6666,-40.8007 1.3186,-10.5151 0.8679,-21.284 -1.5878,-31.6032 -2.4351,-10.133 -7.2311,-19.8524 -14.6163,-27.2932 -6.5167,-6.5493 -14.887,-11.1682 -23.8422,-13.3902 -5.7991,-1.4887 -11.8076,-2.0635 -17.7863,-1.985 z m -1066.0336,0.4796 c -15.4402,0.2556 -30.9006,5.2958 -43.1208,14.8245 -12.1928,9.3872 -21.009,23.2977 -23.5574,38.5373 -2.4687,13.9793 0.3269,28.7931 7.6664,40.9383 7.0444,11.8229 18.0775,21.0545 30.6511,26.5304 16.4208,7.1404 35.4257,7.9904 52.4814,2.6096 12.3401,-3.8983 23.623,-11.2584 31.8906,-21.2457 6.8713,-8.2114 11.5814,-18.2395 13.3263,-28.8146 2.3444,-13.8795 -0.4455,-28.5379 -7.6678,-40.6145 -6.4159,-10.8457 -16.1709,-19.5727 -27.4199,-25.1808 -10.5622,-5.3062 -22.4546,-7.7897 -34.2499,-7.5845 z m 273.9716,3.698 c 0,3.2729 0,6.5457 0,9.8185 7.2727,1.3808 14.5225,2.8835 21.8231,4.1105 1.7954,0.3906 3.8569,0.9 4.8991,2.5583 1.2009,2.2624 0.6348,4.8989 0.7586,7.3442 0.017,24.9596 0.021,49.9201 -0.011,74.8798 0,1.8567 -1.1962,3.6528 -2.9796,4.2474 -3.5759,1.5245 -7.4613,2.0487 -11.2021,3.0206 -3.8128,0.8777 -7.6259,1.7544 -11.4386,2.6329 0,3.7577 0,7.5154 0,11.2731 28.0141,0 56.028,0 84.0421,0 0,-3.7963 0,-7.5927 0,-11.3891 -7.6336,-1.4892 -15.2991,-2.822 -22.9112,-4.4157 -1.7671,-0.4879 -3.8177,-1.2104 -4.5915,-3.0292 -0.9303,-2.5971 -0.3497,-5.3887 -0.5178,-8.0772 0.011,-24.606 -0.031,-49.2127 0.031,-73.8183 0.097,-1.7496 1.3814,-3.2603 3.0252,-3.7964 3.3619,-1.3749 6.9842,-1.8884 10.4824,-2.7994 4.1226,-0.9501 8.2453,-1.9002 12.3679,-2.8504 0,-3.8362 0,-7.6723 0,-11.5086 -27.9262,0 -55.8523,0 -83.7786,0 0,0.5997 0,1.1993 0,1.799 z m 929.1409,0 c 0,3.2729 0,6.5457 0,9.8185 7.2431,1.3735 14.4619,2.8755 21.7333,4.0922 1.8255,0.3939 3.9408,0.8919 4.9943,2.5888 1.2074,2.2909 0.6218,4.9556 0.7578,7.4289 0.01,24.9492 0.024,49.8992 -0.016,74.8482 -0.032,1.8162 -1.1897,3.5591 -2.9285,4.1588 -3.471,1.5091 -7.2567,2.0137 -10.897,2.9606 -3.9311,0.9055 -7.8623,1.8104 -11.7933,2.7162 0,3.7577 0,7.5154 0,11.2731 28.0146,0 56.0292,0 84.0438,0 0,-3.7963 0,-7.5927 0,-11.3891 -7.6349,-1.4886 -15.3011,-2.8229 -22.9147,-4.4155 -1.7762,-0.4911 -3.8472,-1.2237 -4.605,-3.0665 -0.9111,-2.5884 -0.3358,-5.3639 -0.5026,-8.0401 0.01,-24.5916 -0.035,-49.184 0.033,-73.7752 0.074,-1.7344 1.3225,-3.2628 2.9517,-3.8079 2.5682,-1.0958 5.2723,-1.5769 7.9438,-2.2093 4.9842,-1.1911 9.9855,-2.3106 14.9768,-3.4721 0,-3.8362 0,-7.6723 0,-11.5086 -27.9256,0 -55.8512,0 -83.7768,0 0,0.5997 0,1.1993 0,1.799 z m -1201.6667,16.8948 c 7.5411,-0.026 15.084,1.7683 21.798,5.2035 0.3506,0.1795 0.9956,0.5217 1.4504,0.7782 8.5777,4.7794 15.5279,12.4774 19.2023,21.6023 3.7266,9.0414 3.9808,19.4233 0.7971,28.661 -0.387,1.1299 -0.8404,2.2519 -1.2855,3.2694 -2.0696,4.6974 -5.0209,8.996 -8.6346,12.6396 -0.2487,0.2322 -0.7574,0.7552 -1.1201,1.0844 -6.8502,6.487 -15.7769,10.6744 -25.1086,11.9749 -4.5591,0.6669 -9.2101,0.6826 -13.7764,0.073 -0.4324,-0.066 -1.1855,-0.1676 -1.7378,-0.2658 -4.8281,-0.8226 -9.5432,-2.35 -13.8993,-4.5952 -0.3632,-0.1875 -1.0217,-0.5369 -1.487,-0.8046 -8.6883,-4.8944 -15.7443,-12.7643 -19.2817,-22.123 -3.7801,-9.8142 -3.5144,-21.0824 0.6724,-30.7248 2.8825,-6.7399 7.5783,-12.6576 13.389,-17.1121 0.234,-0.1756 0.7457,-0.5711 1.1051,-0.8242 7.4651,-5.445 16.6046,-8.4345 25.8157,-8.7888 0.5874,-0.03 1.4244,-0.041 2.101,-0.048 z m 738.5649,32.7638 c 6.7043,4.4717 13.8681,8.48 19.4663,14.378 4.0336,4.2032 6.4035,9.9137 6.6147,15.7294 0.1138,2.2472 0.068,4.5063 -0.2231,6.739 -0.091,0.7286 -0.2516,1.7012 -0.4278,2.5174 -1.1835,5.6806 -4.2124,11.1334 -9.0213,14.511 -4.9626,3.6063 -11.1109,5.1315 -17.1489,5.5794 -6.3658,0.5024 -13.0402,0.068 -18.8447,-2.816 -4.4586,-2.1562 -8.2443,-5.6333 -10.7982,-9.8747 -2.7257,-4.3648 -4.3312,-9.3589 -5.0738,-14.432 -0.08,-0.5462 -0.1879,-1.362 -0.2519,-2.0214 -0.2218,-2.2864 -0.3298,-4.5873 -0.2312,-6.8836 0.027,-0.3874 0.044,-0.9454 0.084,-1.4045 0.4591,-6.5731 2.5821,-13.0258 6.2055,-18.5366 1.8155,-2.7996 3.9707,-5.3757 6.3806,-7.6823 0.3659,-0.3517 0.9607,-0.8987 1.4278,-1.3097 1.9374,-1.6932 4.0101,-3.2307 6.1755,-4.6194 5.2223,3.3753 10.4446,6.7506 15.6668,10.126 z m 201.4259,0 c 6.7107,4.4798 13.8868,8.4889 19.4861,14.401 4.0364,4.2149 6.3984,9.9415 6.5966,15.7679 0.3583,6.4307 -0.8612,13.1643 -4.5902,18.5278 -3.4289,5.0616 -9.1038,8.1857 -14.9392,9.6213 -2.7384,0.6608 -5.5412,1.0373 -8.3504,1.2241 -0.3766,0.014 -0.9552,0.057 -1.3806,0.064 -5.8887,0.2009 -11.992,-0.5309 -17.2342,-3.3892 -2.7048,-1.4453 -5.1653,-3.3577 -7.1923,-5.6623 -0.1719,-0.1953 -0.5889,-0.6856 -0.8446,-1.0187 -3.2852,-4.175 -5.4026,-9.184 -6.4986,-14.3619 -0.1357,-0.6327 -0.3077,-1.539 -0.4252,-2.2837 -0.9485,-6.1385 -0.8672,-12.5001 0.8257,-18.5058 0.089,-0.3215 0.2796,-0.9832 0.4247,-1.4285 0.9433,-2.9934 2.2486,-5.8724 3.8741,-8.557 0.192,-0.2999 0.5578,-0.9036 0.8336,-1.3084 3.5559,-5.3331 8.3581,-9.7726 13.7441,-13.2165 5.2235,3.3753 10.4469,6.7506 15.6704,10.126 z" />
      <path
         id="text32407-6"
         style="font-style:normal;font-variant:normal;font-weight:normal;font-stretch:normal;font-size:192px;font-family:'Bohemia LT Std';-inkscape-font-specification:'Bohemia LT Std, Normal';font-variant-ligatures:normal;font-variant-caps:normal;font-variant-numeric:normal;font-variant-east-asian:normal;white-space:pre;shape-inside:url(#rect32409-6);display:inline;fill:#f3cf61;fill-opacity:1;stroke-width:0.681745;-inkscape-stroke:none;stop-color:#000000"
         d="m 2840.9608,2545.7234 c -1.1734,2.9973 -2.7279,5.8827 -4.8851,8.2533 -1.8769,1.0798 -4.1253,0.4978 -6.0942,0.032 -8.1713,-2.3528 -16.1862,-5.3471 -24.5453,-6.9658 -16.0493,-3.2972 -32.9422,-2.8895 -48.6311,2.0672 -10.9325,3.5271 -21.2402,9.7049 -28.8027,18.6418 -7.0364,8.2905 -11.3502,18.982 -11.9729,29.9686 -0.4271,6.8446 0.6227,13.7715 3.0554,20.1593 4.2741,11.3631 12.3049,20.9944 21.9735,27.9352 6.092,4.4905 12.9308,7.7581 19.8767,10.589 13.3017,5.755 26.6182,11.4732 39.9025,17.2699 6.4294,2.9617 12.8319,6.4315 17.7819,11.6851 0.4002,0.4265 0.8452,0.9308 1.1281,1.2805 3.9375,4.6131 6.131,10.6024 6.6697,16.6723 0.9786,9.7055 -2.1489,19.8202 -8.6355,26.9904 -5.2529,5.9339 -12.4954,9.7072 -20.0339,11.5325 -9.4967,2.2288 -19.4931,2.2249 -28.9875,-0.017 -10.2973,-2.4325 -20.0015,-7.8583 -27.1832,-15.87 -3.8643,-4.2532 -6.9749,-9.1937 -9.3167,-14.4833 -4.3201,-9.1903 -7.5992,-18.9301 -9.3222,-28.9935 0.086,-0.7806 -0.7607,-0.3978 -1.2308,-0.4851 -4.1525,0 -8.3048,0 -12.4572,0 0,25.6693 0,51.3386 0,77.008 4.3684,0 8.7368,0 13.105,0 1.1618,-3.3267 2.6452,-6.597 4.9369,-9.2721 0.794,-1.0428 2.2564,-0.9881 3.4271,-0.9805 3.3932,0.1277 6.6381,1.2796 9.8488,2.3141 5.1305,1.7868 10.296,3.498 15.5915,4.697 13.8218,3.1751 28.1648,3.6611 42.2203,2.0652 13.0908,-1.6041 26.0917,-5.5731 37.2573,-12.9061 7.1574,-4.6947 13.457,-10.8324 18.1003,-18.1552 4.4905,-6.97 7.4376,-14.9651 8.5963,-23.2355 1.5066,-10.0271 0.7102,-20.5946 -3.3664,-29.9171 -3.9458,-9.207 -10.8282,-16.7812 -18.6539,-22.6889 -7.3878,-5.5987 -15.6699,-9.808 -24.1313,-13.4015 -13.1367,-5.6137 -26.2857,-11.2053 -39.5251,-16.5581 -3.5514,-1.4429 -7.1655,-2.7657 -10.5082,-4.6883 -5.7033,-3.1959 -11.0335,-7.6224 -14.0436,-13.6531 -2.7582,-5.4387 -3.5433,-11.7447 -3.0879,-17.8036 0.6497,-7.2172 4.6448,-13.9392 10.4101,-18.0709 5.7085,-4.2133 12.6664,-6.3184 19.6093,-6.9824 0.5564,-0.051 1.387,-0.1166 2.0539,-0.1506 2.1439,-0.1263 4.2925,-0.072 6.4366,0.028 0.8888,0.046 2.0053,0.1199 2.9803,0.2203 8.8034,0.8751 17.5885,3.8452 24.563,9.5541 3.2646,2.6148 6.1292,5.7295 8.6238,9.1162 0.3223,0.4372 0.8053,1.1141 1.1758,1.6549 4.3932,6.4976 7.7806,13.6649 10.5501,21.0309 2.3176,6.1346 4.0489,12.4899 5.3038,18.9397 0.047,0.6137 0.1826,1.116 0.8881,0.8936 4.1741,0 8.3482,0 12.5224,0 0,-25.4731 -10e-5,-50.9464 0,-76.4195 -4.2406,0 -8.4814,0 -12.722,0 -0.1505,0.3666 -0.3011,0.7332 -0.4518,1.0998 z m -1117.834,-1.091 c -18.6397,0.3019 -37.2172,2.041 -55.8246,3.0671 -4.1395,0.2266 -8.3693,0.4237 -12.5468,0.5695 -1.7288,0.048 -3.6357,0.092 -5.4327,0.1174 -7.1532,0.081 -14.307,0.026 -21.4604,0.041 0,4.228 0,8.456 0,12.6839 7.8559,1.1421 15.6969,2.1514 23.5203,3.3742 2.7092,0.547 5.5872,1.5125 7.3852,3.7917 1.6924,2.3757 1.5809,5.479 1.5251,8.2812 -0.043,3.3314 0.029,6.6635 0,9.9958 -0.01,47.7803 0.023,95.561 -0.027,143.3409 -0.07,3.0441 -1.4637,6.2979 -4.2488,7.6678 -4.1289,2.1181 -8.8482,2.136 -13.328,2.7599 -4.9388,0.6396 -9.8861,1.2098 -14.8282,1.8218 0,4.2496 0,8.4992 0,12.7488 12.2217,0 24.5023,-0.088 36.6856,0.2934 14.4766,0.4509 28.9095,1.8137 43.3897,2.6321 9.2884,0.5127 18.5965,0.7166 27.8966,0.4967 17.5529,-0.477 35.2088,-2.8193 51.8648,-8.7143 14.1034,-5.0198 27.4616,-12.8455 37.8995,-23.9088 10.4715,-10.959 17.674,-24.9421 21.5363,-39.7146 3.8641,-14.9968 4.8771,-30.693 3.6344,-46.1281 -1.3588,-15.8629 -5.9746,-31.5549 -14.2658,-45.0742 -5.4047,-8.8271 -12.3107,-16.667 -20.2874,-23.1163 -9.1596,-7.4805 -19.6255,-13.1731 -30.612,-17.2598 -19.9428,-7.4501 -41.3548,-9.9234 -62.4771,-9.7667 z m 444.3001,0 c -3.4846,0.01 -6.9141,0.2046 -10.4154,0.391 -9.7758,0.5714 -19.5879,1.5536 -29.3143,2.1298 -5.3666,0.3061 -10.8977,0.5853 -16.2722,0.7188 -12.8677,0.3467 -25.7427,0.2655 -38.6128,0.2503 -1.1407,-0.1557 -2.5314,0.25 -2.9298,1.4756 -0.3285,0.8618 0.068,1.7805 -0.053,2.6775 0,2.8503 0,5.7006 0,8.5509 7.8386,1.1065 15.7286,2.1331 23.4994,3.4437 2.7044,0.58 5.5608,1.567 7.3766,3.8244 1.703,2.2891 1.6157,5.3349 1.5585,8.0711 -0.055,3.3063 0.028,6.6132 0,9.9203 -0.01,47.7987 0.023,95.5977 -0.024,143.3962 -0.049,3.0952 -1.3032,6.4636 -4.0842,7.9905 -3.9454,2.1793 -8.5391,2.2399 -12.8855,2.7614 -5.1409,0.5669 -10.2922,1.0302 -15.4389,1.5378 0,4.3732 0,8.7464 0,13.1196 34.5159,0 69.032,0 103.5479,0 0,-4.3521 0,-8.7042 0,-13.0564 -7.894,-0.9328 -15.7928,-1.7781 -23.6558,-3.0779 -2.9168,-0.6032 -5.9881,-1.6424 -7.9866,-4.0293 -1.8192,-2.2894 -1.8213,-5.417 -1.751,-8.2228 0.061,-3.473 -0.023,-6.9467 0.01,-10.4207 0.01,-48.0992 -0.025,-96.1989 0.025,-144.298 0.076,-3.1132 1.1053,-6.5153 3.7491,-8.3138 3.8368,-2.5599 8.5094,-3.1088 12.9566,-3.579 3.5082,-0.3084 6.946,-0.3741 10.4976,-0.3495 1.2442,0.023 2.4581,0.055 3.6312,0.1252 7.1823,0.4119 14.5292,1.6709 20.87,5.3413 4.1913,2.3536 7.6659,5.9888 9.8931,10.3264 3.2236,6.1871 4.1336,13.3165 4.2862,20.2419 0.084,8.2529 -0.6237,16.6383 -3.2913,24.4737 -2.2114,6.422 -5.9416,12.4623 -11.3562,16.5157 -4.7019,3.625 -10.3288,5.81 -16.0889,6.8626 -5.198,1.0316 -10.5104,1.1103 -15.7862,1.0622 -3.4594,0 -6.9185,0 -10.3779,0 0,5.0677 0,10.1353 0,15.203 7.0779,0.085 14.1602,-0.1392 21.2348,0.1287 4.7528,0.3256 9.5767,1.4764 13.581,4.2293 0.4246,0.2821 0.8852,0.6134 1.1908,0.8541 3.7983,2.8267 6.3692,7.0039 8.3241,11.3069 2.7453,6.2004 4.1797,12.897 5.4912,19.5413 1.621,8.6101 2.6274,17.2893 4.155,25.9193 1.7729,8.8379 5.6115,17.4323 11.9259,23.8225 4.9476,5.0779 11.2927,8.5449 17.9771,10.5401 6.4997,1.9987 13.3171,2.5894 20.0743,2.6615 3.8704,0.041 7.7368,-0.432 11.4927,-1.3904 8.9006,-2.2034 17.3812,-7.0073 23.2019,-14.3655 4.9523,-6.2363 7.8006,-14.0194 8.8384,-21.9463 1.3558,-10.0935 0.1656,-20.3539 -1.9983,-30.2366 -0.2009,-0.4543 0.016,-1.3981 -0.6922,-1.2579 -4.6071,-0.3707 -9.2144,-0.7398 -13.8218,-1.1084 0.4102,4.5794 0.8313,9.2845 0.9396,13.8082 0.1798,7.8333 -0.2648,15.8067 -2.6112,23.3129 -1.312,4.0296 -3.3701,7.9623 -6.6014,10.7034 -3.8548,3.0238 -9.1602,3.9407 -13.7972,2.5391 -3.6883,-1.2229 -6.289,-4.511 -8.0008,-7.9398 -3.3226,-6.8545 -4.5995,-14.5234 -5.792,-21.9829 -0.8279,-5.2763 -1.6349,-10.5753 -3.1448,-15.7018 -2.7106,-9.6006 -7.3621,-18.7411 -14.1872,-25.9384 -7.0739,-7.5038 -16.3007,-12.6239 -26.0161,-15.5242 11.0936,-2.9335 21.9147,-7.8231 30.593,-15.6316 8.3909,-7.4294 14.1127,-18.0651 15.3857,-29.3997 0.848,-7.1545 0.3696,-14.4551 -1.1857,-21.4741 -2.2157,-9.5488 -7.4706,-18.3842 -14.9816,-24.5025 -7.6532,-6.3675 -17.0264,-10.146 -26.5327,-12.4666 -11.9805,-2.8613 -24.3471,-3.6415 -36.6159,-3.5601 z m -1027.5316,1.3545 c -25.1812,58.6756 -50.3548,117.3562 -75.5584,176.0213 -2.9263,5.6816 -6.723,11.1267 -12.0388,14.6777 -3.1003,1.9005 -6.7024,2.4651 -10.1091,3.459 -2.9522,0.7478 -5.9397,1.3346 -8.9147,1.9764 0,4.2567 0,8.5133 0,12.77 26.0358,0 52.0717,0 78.1075,0 0,-4.3498 0,-8.6995 0,-13.0492 -5.1544,-0.6207 -10.3133,-1.2039 -15.4563,-1.9202 -1.6763,-0.2441 -3.5279,-0.5223 -5.2664,-0.8119 -2.9211,-0.4437 -5.8861,-1.1298 -8.4317,-2.7324 -1.2387,-0.8374 -2.6248,-2.0363 -2.6288,-3.6936 0.1526,-2.0983 1.3951,-3.8718 2.0931,-5.8015 6.3137,-14.5839 12.6273,-29.1678 18.9411,-43.7517 24.5762,0 49.1524,0 73.729,0 6.7866,16.1893 13.6253,32.3564 20.361,48.5672 0.5755,1.7039 0.6721,3.9831 -0.8168,5.2342 -2.5088,1.9762 -5.799,2.1012 -8.7952,2.6278 -4.9163,0.8907 -9.8612,1.6103 -14.7942,2.3997 0,4.3105 0,8.621 0,12.9316 32.2888,0 64.5775,0 96.8663,0 0,-4.2848 0,-8.5696 0,-12.8542 -5.5051,-1.0547 -11.0539,-1.897 -16.4833,-3.3517 -5.4657,-1.7778 -9.8528,-5.9434 -13.1919,-10.6038 -2.9294,-4.0582 -5.1826,-8.5756 -7.2346,-13.1516 -0.6516,-1.4916 -1.3873,-3.1537 -2.0529,-4.719 -1.1371,-2.6758 -2.3413,-5.3618 -3.4955,-7.9609 -23.0316,-52.4461 -46.0625,-104.8924 -69.0942,-157.3384 -5.0916,0 -10.1833,0 -15.2748,0 -0.1536,0.3584 -0.3069,0.7168 -0.4604,1.0752 z m 1931.5127,5.9432 c 0,3.1645 0,6.329 0,9.4935 6.9322,0.9752 13.8828,1.8045 20.8275,2.6707 3.1734,0.5851 6.5354,1.2866 9.07,3.4723 1.8212,1.5452 2.5063,4.035 2.5342,6.3801 0.039,2.4299 -0.049,4.8605 0,7.2908 -0.01,49.5564 0.026,99.1134 -0.028,148.6695 -0.072,2.968 -1.3217,6.1886 -4.0168,7.5993 -2.5434,1.395 -5.5684,1.8776 -8.3124,2.203 -6.687,0.7346 -13.3796,1.4159 -20.0745,2.0729 0,4.3697 0,8.7394 0,13.1091 62.5407,0 125.0814,0 187.622,0 0.9719,-18.0544 1.9471,-36.1087 2.9208,-54.1629 -4.4087,0 -8.8177,0 -13.2265,0 -1.9796,7.2067 -4.1025,14.3845 -6.8154,21.3411 -0.5662,1.4321 -1.2062,3.038 -1.8578,4.5119 -2.8447,5.6846 -8.0992,9.9945 -14.0981,11.671 -5.9759,1.8471 -12.2884,1.379 -18.4456,1.4284 -17.0831,-0.022 -34.1671,0.053 -51.2494,-0.047 -3.6344,-0.2004 -7.4929,-0.5886 -10.5838,-2.7479 -1.9269,-1.2959 -3.0056,-3.5636 -3.2857,-5.8625 -0.3791,-2.8546 -0.108,-5.743 -0.1843,-8.613 0,-22.2695 0,-44.539 0,-66.8085 15.3035,0.024 30.6082,-0.054 45.9109,0.05 3.0778,0.1642 6.3922,1.45 8.0478,4.2678 2.0724,3.4074 2.0543,7.553 2.6644,11.3957 0.7617,4.9072 1.4195,9.8318 2.1406,14.7458 4.2589,0 8.5177,0 12.7767,0 0,-25.2782 0,-50.5563 0,-75.8344 -4.2646,0 -8.5293,0 -12.7938,0 -0.4807,3.6846 -1.0058,7.305 -1.6443,10.9978 -0.5501,3.2791 -1.24,6.6251 -1.8035,9.9498 -0.5851,2.9122 -1.7917,5.9905 -4.3907,7.5823 -2.9301,1.7969 -6.4823,1.6521 -9.7745,1.6392 -13.7109,-0.01 -27.4224,6e-4 -41.1336,0 0.022,-22.0756 -0.041,-44.1522 0.04,-66.2273 0.1396,-2.8196 0.6672,-5.9481 2.82,-7.9206 1.8734,-1.5922 4.3684,-2.1059 6.7242,-2.3926 3.6719,-0.3531 7.3671,-0.1678 11.0496,-0.2181 13.2284,0.025 26.4578,-0.066 39.6855,0.058 1.2194,0.046 2.4367,0.1528 3.6452,0.3276 0.4816,0.076 1.2446,0.1947 1.8338,0.3194 5.2319,1.0442 10.3501,3.4552 13.9611,7.5708 2.6506,2.8961 4.2796,6.5724 5.5652,10.275 2.5698,6.7638 4.6788,13.7016 6.5633,20.6963 4.4105,0 8.8211,0 13.2318,0 -0.9749,-18.1515 -1.9467,-36.3031 -2.9192,-54.4545 -57.3937,0 -114.7876,0 -172.1812,0 -0.3015,-0.2013 -0.9725,-1.3188 -0.8179,-0.3901 0,1.2977 0,2.5954 0,3.893 z m -2208.1659,-1.7867 c -0.81734,17.482 -1.64962,34.9632 -2.47254,52.4448 4.18828,0 8.37637,0 12.56455,0 1.55203,-5.6607 3.21235,-11.2961 5.25135,-16.7947 0.60651,-1.6384 1.30072,-3.4344 2.00257,-5.1092 1.13953,-2.7668 2.32935,-5.5591 4.19879,-7.9023 3.51341,-4.7181 9.05385,-7.4534 14.6603,-8.4632 6.22647,-1.1092 12.5641,-0.5504 18.84534,-0.6803 3.96439,0.1027 7.96558,-0.3025 11.89966,0.3483 3.3041,0.6652 6.643,2.6434 8.00416,5.9407 1.50913,3.6512 0.80422,7.6862 0.95038,11.528 0.0261,27.8979 0.009,55.7966 0.0126,83.6948 -0.009,21.6009 0.01,43.2026 -0.0324,64.8031 -0.10227,3.0807 -1.67705,6.2559 -4.48123,7.5918 -3.7317,1.954 -8.01118,2.1369 -12.09367,2.6248 -5.37782,0.5725 -10.76265,1.0725 -16.14442,1.6035 0,4.3726 0,8.7452 0,13.1178 34.51537,0 69.03075,0 103.54626,0 0,-4.3521 0,-8.7042 0,-13.0564 -7.6435,-0.9286 -15.31822,-1.6647 -22.90377,-3.0251 -2.94746,-0.6724 -6.03083,-1.8926 -7.90469,-4.4479 -1.7893,-2.6197 -1.69189,-5.9748 -1.62002,-9.0325 0.0324,-3.6739 -0.027,-7.3484 0,-11.023 0.009,-46.7981 -0.0234,-93.5966 0.0243,-140.3944 0.12458,-2.6705 0.47609,-5.6566 2.45249,-7.6063 1.75989,-1.5815 4.16191,-2.1082 6.41993,-2.412 3.97834,-0.4268 7.98762,-0.1923 11.97998,-0.253 5.23188,0.01 10.47098,-0.1248 15.69678,0.174 5.6288,0.4974 11.3831,2.2532 15.6923,6.1475 3.1901,2.8532 5.1261,6.8222 6.6589,10.7971 2.1644,5.352 4.0848,10.8085 5.6798,16.3689 0.5135,1.7532 1.0318,3.648 1.5349,5.46 4.1818,0 8.3638,0 12.5457,0 -0.7301,-18.0538 -1.462,-36.1075 -2.1936,-54.1611 -63.56407,-10e-5 -127.12787,0 -190.69184,0 -0.0252,0.572 -0.0522,1.1442 -0.0774,1.7163 z m 408.1842,0.083 c 0,3.5404 0,7.0809 0,10.6213 7.0709,1.7018 14.2031,3.1305 21.2575,4.9039 6.3171,1.8405 11.7563,6.0853 15.8817,11.2508 3.4059,4.1034 6.3688,8.5642 9.5159,12.874 12.6429,17.6968 25.2114,35.4481 37.8348,53.16 2.8073,3.9463 5.6147,7.8926 8.422,11.8389 -16.9628,20.5629 -33.8975,41.1504 -50.853,61.7195 -5.685,6.6811 -11.8661,13.1938 -19.5683,17.4064 -6.6256,3.6227 -14.0855,5.0192 -21.2973,6.8656 -1.1691,0.2976 -2.3271,0.6403 -3.5147,0.8215 -1.3754,0.3825 -2.0268,1.9441 -1.8381,3.3058 0.06,3.297 0.01,6.5987 0.025,9.8976 25.9308,0 51.8618,0 77.7927,0 0,-4.3334 0,-8.6668 0,-13.0002 -6.3584,-0.8904 -12.8701,-1.5381 -18.8581,-4.0633 -1.5594,-0.8851 -1.6656,-3.0011 -1.3527,-4.5992 0.5572,-2.9103 2.259,-5.4166 4.1867,-7.5587 15.4498,-18.4551 30.6706,-37.106 45.9389,-55.7202 14.7613,20.4992 29.5521,40.9724 44.3395,61.4515 1.3866,2.2534 3.0653,4.4293 3.6787,7.0713 -1.6312,0.4281 -3.3268,0.5558 -4.9825,0.873 -5.415,0.877 -10.8305,1.7511 -16.2453,2.63 0,4.3052 0,8.6105 0,12.9158 32.5021,0 65.0042,0 97.5062,0 0,-4.2783 0,-8.5567 0,-12.835 -4.2649,-0.823 -8.6697,-1.6021 -12.8195,-2.607 -3.2549,-0.8323 -6.5463,-1.6902 -9.5202,-3.3313 -6.3664,-3.2965 -11.8486,-8.1142 -16.868,-13.2561 -1.0262,-1.0962 -1.8993,-2.1046 -2.8579,-3.2748 -3.5245,-4.3531 -6.606,-9.0548 -9.9155,-13.577 -15.1215,-21.1475 -30.2486,-42.2909 -45.3778,-63.4326 16.2789,-19.7532 32.4845,-39.5729 49.0679,-59.0581 2.2904,-2.5679 4.811,-5.017 7.3728,-7.1853 7.091,-6.0373 15.5649,-10.4258 24.6162,-12.299 3.7517,-0.948 7.479,-1.9914 11.2131,-3.0085 0,-4.1999 0,-8.3998 0,-12.5995 -25.9302,0 -51.8606,-10e-5 -77.7909,0 0,4.2858 0,8.5718 0,12.8577 6.5367,1.2337 13.1727,2.1642 19.4978,4.3287 1.5471,0.7698 1.7356,2.861 1.2855,4.3754 -0.8642,3.6963 -3.5491,6.4983 -5.9522,9.2326 -13.5977,15.9327 -26.896,32.1312 -40.2594,48.2707 -13.815,-19.4644 -27.6266,-38.9311 -41.5076,-58.3459 -0.7267,-1.3549 -1.7695,-2.6765 -1.8103,-4.2882 1.1162,-0.7309 2.5208,-0.6635 3.7727,-0.9938 5.201,-0.924 10.3878,-1.9236 15.5814,-2.8922 0,-4.1817 0,-8.3634 0,-12.545 -31.8661,0 -63.7323,-10e-5 -95.5983,0 0,0.5995 0,1.1992 0,1.7989 z m 237.1991,0 c 0,3.6271 0,7.2543 0,10.8814 7.603,1.1456 15.2466,2.0202 22.8235,3.3432 2.9394,0.6727 6.0279,1.7788 8.0151,4.2269 1.7471,2.203 1.6654,5.205 1.5946,7.8885 -0.05,3.0726 0.031,6.1458 6e-4,9.2194 -0.01,48.0411 0.026,96.0826 -0.028,144.1233 -0.07,2.9952 -1.3525,6.2443 -4.0867,7.6397 -4.0964,2.1318 -8.7948,2.129 -13.2534,2.6958 -5.0157,0.5656 -10.0424,1.024 -15.0633,1.538 0,4.3697 0,8.7394 0,13.1091 34.5155,0 69.0309,0 103.5463,0 0,-4.3574 0,-8.7147 0,-13.0721 -5.4924,-0.6224 -11.013,-1.2119 -16.4225,-1.9686 -2.4807,-0.3501 -4.9931,-0.7241 -7.5063,-1.191 -2.7792,-0.613 -5.7141,-1.7775 -7.3943,-4.2625 -1.6867,-2.7612 -1.4654,-6.1607 -1.4145,-9.2838 -0.01,-4.7042 -0.022,-9.4098 -0.013,-14.1149 0.01,-45.9508 -0.025,-91.9019 0.029,-137.8524 0.068,-2.914 1.3714,-6.0522 4.0421,-7.3706 3.9315,-2.0791 8.4581,-2.0699 12.7409,-2.6881 5.3129,-0.6373 10.6261,-1.2732 15.9389,-1.9114 0,-4.2496 0,-8.4992 0,-12.7488 -34.5161,0 -69.0321,0 -103.548,0 0,0.5995 0,1.1992 0,1.7989 z m 787.9097,0 c 0,3.7489 0,7.4978 0,11.2468 8.3323,1.0088 16.6754,1.9398 24.9933,3.0644 2.3208,0.4414 4.8873,1.3614 6.1142,3.5902 1.8885,3.7456 1.649,8.0885 1.6298,12.1775 0.033,24.3048 0.01,48.6104 0.017,72.9155 -0.01,25.3496 0.015,50.7001 -0.032,76.0492 -0.1271,2.7042 -0.6216,5.7163 -2.6977,7.6007 -2.0024,1.6467 -4.6327,2.1381 -7.1073,2.5108 -3.448,0.3922 -6.8936,0.8044 -10.3438,1.1788 -4.1863,0.4408 -8.3786,0.8188 -12.5715,1.1872 0,4.3814 0,8.7628 0,13.1442 28.3692,0 56.7384,0 85.1076,0 0,-4.3896 0,-8.7792 0,-13.1688 -7.0271,-0.5373 -14.0487,-1.1775 -21.0377,-2.1063 -3.3962,-0.3377 -7.0041,-0.9087 -9.7652,-3.1306 -2.0767,-1.6836 -2.9899,-4.4154 -3.151,-7.0483 -0.1895,-3.1521 -0.017,-6.3132 -0.072,-9.4692 0,-43.5619 0,-87.1238 0,-130.6857 23.4333,55.203 46.8668,110.4059 70.3,165.6089 3.4073,0 6.8146,0 10.2219,0 23.3271,-54.8145 46.6558,-109.6282 69.9834,-164.4424 -0.01,46.4819 0.027,92.9642 -0.027,139.4459 -0.075,2.8615 -1.1193,6.0143 -3.6618,7.5082 -3.8795,2.1648 -8.4076,2.201 -12.6859,2.7253 -5.3477,0.5948 -10.7035,1.1121 -16.0566,1.6539 0,4.3697 0,8.7394 0,13.1091 34.4099,0 68.8198,0 103.2298,0 0,-4.3522 0,-8.7042 0,-13.0564 -7.8943,-0.9355 -15.7954,-1.7734 -23.6572,-3.085 -2.6792,-0.5807 -5.5494,-1.5569 -7.2639,-3.8875 -1.5878,-2.4705 -1.5628,-5.5752 -1.5184,-8.4261 0.064,-3.7113 -0.024,-7.4231 0.01,-11.1353 0.01,-47.3655 -0.027,-94.7317 0.027,-142.0971 0.062,-3.0268 1.6665,-6.1315 4.4411,-7.3787 3.8983,-1.9482 8.3388,-1.8055 12.536,-2.4385 5.1388,-0.6741 10.2862,-1.2811 15.4283,-1.9297 0,-4.3433 0,-8.6867 0,-13.0299 -24.2633,0 -48.5264,-10e-5 -72.7895,0 -20.5134,48.5119 -41.0297,97.0226 -61.5443,145.5341 -21.1273,-48.5114 -42.2545,-97.0228 -63.3819,-145.5341 -24.89,-10e-5 -49.7802,0 -74.6701,0 0,0.5995 0,1.1992 0,1.7989 z m 288.3928,0 c 0,3.6271 0,7.2543 0,10.8814 7.6026,1.1466 15.2454,2.0217 22.8219,3.3435 2.9492,0.6777 6.0564,1.7849 8.0375,4.2565 1.7291,2.2137 1.6449,5.2095 1.5703,7.8924 -0.041,3.2412 0.03,6.4831 0,9.7253 -0.01,47.8606 0.025,95.7216 -0.027,143.5819 -0.072,2.9679 -1.3219,6.1889 -4.0171,7.5992 -2.5433,1.3951 -5.5682,1.8777 -8.3124,2.2031 -6.6535,0.7306 -13.3124,1.4095 -19.9739,2.0629 -0.2414,0.3194 -0.029,1.0619 -0.1005,1.5391 0,3.8601 0,7.72 0,11.58 34.5154,0 69.0309,0 103.5463,0 0,-4.3574 0,-8.7147 0,-13.0721 -5.4924,-0.6224 -11.0131,-1.2119 -16.4226,-1.9686 -2.4645,-0.346 -4.958,-0.7234 -7.4564,-1.1776 -2.7987,-0.6111 -5.7537,-1.782 -7.4476,-4.2814 -1.6904,-2.7724 -1.4624,-6.1838 -1.4094,-9.3169 -0.026,-13.0561 -0.01,-26.1144 -0.014,-39.1714 0,-37.5863 -0.019,-75.173 0.029,-112.7591 0.07,-2.9283 1.3876,-6.0785 4.0781,-7.3913 3.9542,-2.0649 8.4932,-2.0542 12.7919,-2.6761 5.2838,-0.6338 10.5679,-1.2662 15.8518,-1.9009 0,-4.2496 0,-8.4992 0,-12.7488 -34.5154,-10e-5 -69.031,0 -103.5463,0 0,0.5995 0,1.1992 0,1.7989 z m 288.1501,-0.083 c -0.8174,17.482 -1.6498,34.9632 -2.4725,52.4448 4.1881,0 8.3762,0 12.5645,0 2.4191,-8.8725 5.185,-17.6887 9.0652,-26.0136 0.4489,-0.877 1.0189,-1.8365 1.4943,-2.5485 2.2837,-3.5456 5.681,-6.2381 9.482,-7.8735 4.2087,-1.8802 8.8452,-2.3904 13.3912,-2.5137 1.222,-0.029 2.6502,-0.032 3.9509,-0.02 4.8697,0.06 9.7388,0.019 14.6083,0 2.8863,0.023 5.8987,0.1948 8.4782,1.6704 2.2689,1.1811 4.1502,3.2523 4.8044,5.815 0.9939,3.5434 0.3677,7.2616 0.5491,10.8864 -0.01,49.2619 0.025,98.5241 -0.025,147.7859 -0.048,3.1498 -1.6397,6.4278 -4.5125,7.7839 -3.7541,1.9583 -8.0561,2.1279 -12.1586,2.6223 -5.3472,0.5679 -10.7012,1.0659 -16.0523,1.5937 0,4.3726 0,8.7452 0,13.1179 34.5155,0 69.0309,0 103.5462,0 0,-4.3522 0,-8.7043 0,-13.0564 -7.6933,-0.9409 -15.4227,-1.6603 -23.0539,-3.0618 -2.9779,-0.6937 -6.0991,-1.9746 -7.9099,-4.6328 -1.7332,-2.7673 -1.5112,-6.2028 -1.4554,-9.3502 -0.025,-13.1178 -0.01,-26.2379 -0.014,-39.3566 0,-37.2247 -0.02,-74.4501 0.028,-111.6744 0.1291,-2.6664 0.5311,-5.654 2.551,-7.5536 1.7491,-1.5006 4.0841,-1.9934 6.2849,-2.3137 0.8627,-0.111 1.8981,-0.1711 2.6577,-0.2047 5.2103,-0.1035 10.4227,-0.011 15.6339,-0.067 3.6624,0.037 7.3419,-0.072 10.9862,0.363 5.4692,0.7238 11.025,2.7216 14.9769,6.8139 3.4749,3.5251 5.1818,8.3337 6.9504,12.895 2.4304,6.1512 4.3348,12.5046 6.0647,18.8957 4.1826,0 8.3651,0 12.5476,0 -0.73,-18.0538 -1.4619,-36.1075 -2.1936,-54.1612 -63.5639,0 -127.1278,0 -190.6918,0 -0.025,0.5721 -0.051,1.1442 -0.076,1.7164 z m -1003.5644,0.085 c 0,3.732 0,7.4639 0,11.1959 6.9333,0.9755 13.8848,1.8055 20.8309,2.6706 3.1968,0.592 6.5964,1.299 9.1304,3.5319 1.7842,1.5509 2.4365,4.0157 2.47,6.3346 0.035,2.4253 -0.049,4.8511 5e-4,7.2768 -0.01,49.5594 0.025,99.1192 -0.028,148.6783 -0.067,2.9945 -1.3582,6.2368 -4.0871,7.6326 -4.0966,2.1319 -8.7948,2.129 -13.2534,2.6958 -5.0155,0.5656 -10.0424,1.024 -15.0632,1.538 0,4.3697 0,8.7394 0,13.1091 62.5405,0 125.0813,0 187.6221,0 0.9716,-18.0544 1.947,-36.1087 2.9207,-54.163 -4.41,0 -8.8202,0 -13.2301,0 -2.3828,8.7648 -5.0535,17.4783 -8.6377,25.8112 -2.797,5.5565 -7.8597,9.8438 -13.7132,11.5866 -3.0624,1.0027 -6.2818,1.3769 -9.482,1.5129 -0.3747,0.014 -0.9757,0.037 -1.3994,0.042 -5.2003,0.032 -10.4013,-0.023 -15.602,0 -14.5428,-0.01 -29.0865,0.043 -43.6285,-0.044 -3.6349,-0.2021 -7.4943,-0.5879 -10.5855,-2.748 -1.9025,-1.2851 -2.9858,-3.5176 -3.2723,-5.7929 -0.3994,-2.8763 -0.1149,-5.7894 -0.1944,-8.6826 0,-22.2695 0,-44.539 0,-66.8085 15.3029,0.024 30.607,-0.053 45.9094,0.05 3.0356,0.1649 6.2997,1.413 7.9802,4.1552 2.0941,3.347 2.1144,7.4561 2.6957,11.2611 0.7778,4.9892 1.4465,9.9966 2.1802,14.9932 4.2577,0 8.5155,0 12.7732,0 0,-25.2782 0,-50.5563 0,-75.8344 -4.2627,0 -8.5257,0 -12.7887,0 -0.8087,6.391 -1.9129,12.7377 -3.122,19.0598 -0.4782,3.1315 -1.2709,6.5224 -3.6901,8.6987 -2.4421,2.1576 -5.8318,2.4115 -8.9128,2.4188 -14.3414,-0.026 -28.6834,0 -43.0251,-0.01 0.018,-22.0756 -0.041,-44.1522 0.038,-66.2274 0.1468,-2.8222 0.6673,-5.9529 2.8257,-7.9275 1.9004,-1.6013 4.4224,-2.1156 6.806,-2.395 3.6727,-0.3399 7.3674,-0.1595 11.0501,-0.2087 13.1996,0.025 26.4005,-0.066 39.5995,0.058 1.6806,0.056 3.4345,0.2596 4.9971,0.5524 0.3211,0.057 0.9533,0.1881 1.3926,0.2927 4.9577,1.1336 9.7509,3.557 13.16,7.4955 2.6257,2.9137 4.2226,6.5974 5.5063,10.2947 2.5455,6.7187 4.6437,13.6064 6.5091,20.5537 4.4112,0 8.8225,0 13.2335,0 -0.9749,-18.1509 -1.9466,-36.3019 -2.9191,-54.4528 -57.6658,0 -115.3316,0 -172.9973,0 0,0.5996 0,1.1992 0,1.7989 z m -142.3469,9.3056 c 12.3692,0.013 24.9056,1.6985 36.4174,6.5276 6.6963,2.7754 12.9429,6.7077 18.3236,11.6585 0.581,0.5354 1.339,1.249 1.9647,1.8812 7.5215,7.4446 12.9054,16.9226 16.4979,26.9384 1.2553,3.5094 2.2981,7.0964 3.1706,10.7252 0.1489,0.6802 0.3791,1.6107 0.5372,2.3968 1.3337,6.1472 2.1745,12.551 2.6369,18.7337 0.1392,2.0039 0.2632,4.0396 0.3309,5.9747 0.5028,13.7112 -0.3162,27.5528 -3.4022,40.9328 -0.4012,1.7026 -0.8084,3.294 -1.2989,5.0264 -0.6023,2.114 -1.2872,4.2792 -1.9796,6.2229 -3.1855,9.0576 -7.8395,17.6407 -14.1353,24.8136 -0.4157,0.4715 -1.0206,1.1404 -1.5245,1.6732 -5.2672,5.603 -11.6073,10.0998 -18.5003,13.3314 -0.7759,0.3658 -1.7672,0.8164 -2.6442,1.1795 -2.7443,1.1664 -5.6992,2.1807 -8.4762,2.9629 -3.1129,0.8793 -6.337,1.5446 -9.4605,2.0342 -0.7918,0.1125 -1.6202,0.2493 -2.3102,0.3339 -5.9203,0.8012 -11.901,0.981 -17.8661,0.8607 -5.2013,-0.061 -10.4884,-0.3048 -15.6396,-1.4452 -3.4355,-0.7034 -6.9694,-2.1634 -9.1298,-5.1279 -1.2319,-1.8044 -1.8382,-3.9801 -2.2256,-6.1247 -0.07,-0.3614 -0.1524,-1.0544 -0.2138,-1.546 -0.4112,-4.1428 -0.1177,-8.3119 -0.2172,-12.4667 0.01,-47.4426 -0.023,-94.8856 0.026,-142.328 0.1088,-3.4937 0.7617,-7.2883 3.2445,-9.8742 2.3566,-2.3 5.5767,-3.3522 8.694,-4.0214 3.2116,-0.6362 6.4791,-0.9372 9.7428,-1.1066 1.0364,-0.039 2.2941,-0.099 3.4172,-0.1153 1.34,-0.037 2.6805,-0.041 4.0209,-0.051 z m -559.2456,108.3926 c -20.3687,0 -40.7374,0 -61.1061,0 10.2744,-24.0759 20.549,-48.1518 30.8234,-72.2278 10.0942,24.076 20.1886,48.1519 30.2827,72.2278 z" />
    </g>
  </g>
</svg>
